<svg id="Layer_1" xmlns="http://www.w3.org/2000/svg" viewBox="0 0 50 50"><style>.st0{fill:#00a850}</style><path class="st0" d="M10.5 21.1c0 .2 0 .3.1.5s.2.3.3.4L24 35.1c.3.3.6.4.9.4.4 0 .7-.1 1-.4L39.1 22c.2-.2.4-.5.4-.9s-.1-.7-.4-.9c-.3-.3-.6-.4-1-.4s-.7.1-1 .4L25 32.4 12.8 20.1c-.3-.3-.6-.4-1-.4s-.7.1-1 .4c-.1.1-.2.3-.3.4.1.2 0 .4 0 .6M2.6 25c0 3.1.6 6 1.8 8.7 1.2 2.7 2.8 5.1 4.8 7.1s4.4 3.6 7.1 4.8c2.7 1.2 5.6 1.8 8.7 1.8 3.1 0 6-.6 8.7-1.8 2.7-1.2 5.1-2.8 7.1-4.8s3.6-4.4 4.8-7.1c1.2-2.7 1.8-5.6 1.8-8.7 0-3.1-.6-6-1.8-8.7-1.2-2.7-2.8-5.1-4.8-7.1s-4.4-3.6-7.1-4.8C31 3.3 28.1 2.7 25 2.7c-3.1 0-6 .6-8.7 1.7-2.7 1.2-5.1 2.8-7.1 4.8s-3.6 4.4-4.8 7.1C3.2 19 2.6 21.9 2.6 25m40.1 17.7c-1.2 1.2-2.4 2.2-3.8 3.1-1.4.9-2.8 1.7-4.3 2.3-1.5.6-3 1.1-4.6 1.4-1.7.3-3.3.5-5 .5-1.6 0-3.3-.2-4.9-.5-1.6-.3-3.2-.8-4.7-1.4-1.5-.6-2.9-1.4-4.3-2.3-1.4-.9-2.6-1.9-3.8-3.1-1.2-1.2-2.2-2.5-3.1-3.8s-1.7-2.8-2.3-4.3C1.3 33.1.8 31.5.5 29.9.2 28.3 0 26.7 0 25c0-1.7.2-3.3.5-4.9.3-1.6.8-3.2 1.4-4.7.6-1.5 1.4-2.9 2.3-4.3.9-1.4 1.9-2.6 3.1-3.8C8.5 6.1 9.8 5 11.1 4.1c1.4-.9 2.8-1.7 4.3-2.3 1.5-.6 3.1-1.1 4.7-1.4C21.7.2 23.3 0 25 0c1.7 0 3.3.2 4.9.5 1.6.3 3.2.8 4.6 1.4 1.5.6 2.9 1.4 4.3 2.3 1.4.9 2.6 2 3.8 3.2 1.2 1.2 2.3 2.4 3.2 3.8.9 1.4 1.7 2.8 2.3 4.3.6 1.5 1.1 3 1.4 4.7.3 1.6.5 3.3.5 4.9 0 1.7-.2 3.3-.5 4.9-.3 1.6-.8 3.1-1.4 4.7-.6 1.5-1.4 2.9-2.3 4.3-.9 1.2-1.9 2.5-3.1 3.7"/></svg>