<svg id="Layer_1" xmlns="http://www.w3.org/2000/svg" viewBox="0 0 122 128"><style>.st0{fill:#b6bec5}</style><path id="Layer_2" class="st0" d="M41.1 96c.7 0 1.3-.2 1.9-.6.6-.4 1-.9 1.3-1.6.2-.7.3-1.4.4-2.1.1-.7.2-1.4.2-2.2 0-3.5-1.3-6.5-3.8-9s-5.5-3.8-9-3.8c-.8 0-1.5.1-2.2.2s-1.4.3-2.1.4c-.8.3-1.4.9-1.8 1.7-.4.8-.4 1.6-.2 2.4.3.8.9 1.4 1.7 1.8s1.6.4 2.4.2c.3-.2.7-.3 1.1-.3s.7-.1 1.1-.1c1.8 0 3.3.6 4.5 1.9 1.3 1.2 1.9 2.8 1.9 4.5 0 .3 0 .7-.1 1.1s-.1.7-.3 1.1c-.3.8-.2 1.6.2 2.4s1 1.4 1.8 1.7c.2 0 .3 0 .5.1.2.2.4.2.5.2m.7-51.1c.8 0 1.6-.3 2.2-.9s.9-1.4.9-2.3c0-.9-.3-1.7-.9-2.3s-1.4-.9-2.2-.9c-.9 0-1.7-.3-2.3-.9-.6-.6-.9-1.4-.9-2.2 0-.9-.3-1.7-.9-2.3-.6-.6-1.4-.9-2.2-.9-.9 0-1.7.3-2.3.9-.6.6-.9 1.4-.9 2.3 0 2.7.9 4.9 2.8 6.8 1.7 1.7 4 2.7 6.7 2.7m55.4 75.3c5.3-1.9 9.8-5.7 13.2-11.3 3.5-5.6 5.2-12.1 5.2-19.3 0-3.7-.5-7.3-1.6-10.8-1-3.5-2.5-6.7-4.3-9.6-.5-.8-.7-1.5-.5-2.4.2-.8.6-1.5 1.4-2s1.6-.7 2.4-.5c.9.2 1.5.6 1.9 1.4.1.1.2.2.3.4.1.2.2.3.3.4-.1-5.1-.7-10.1-1.9-15s-2.9-9.6-5.1-14.1c-.5 2.3-1.3 4.6-2.4 6.7-1.1 2.1-2.6 4.1-4.3 5.9-.3.2-.7.5-1.1.6-.4.2-.8.2-1.2.2-.4 0-.8-.1-1.3-.2-.4-.1-.8-.4-1-.7-.7-.7-1-1.4-1-2.3 0-.9.3-1.6.9-2.2 1.8-1.8 3.2-3.9 4.1-6.2s1.4-4.7 1.4-7.3c0-2.8-.6-5.5-1.7-7.9-1.1-2.5-2.7-4.6-4.8-6.4.1.2.1.5.1.8v.8c0 .7 0 1.3-.1 1.9l-.3 1.8c-.2.8-.5 1.5-1.1 1.9-.6.5-1.3.7-2 .7h-.3c-.1 0-.2 0-.3-.1-.9-.2-1.6-.6-2.1-1.3-.5-.7-.6-1.5-.4-2.4.1-.4.1-.8.2-1.2 0-.4.1-.8.1-1.2 0-3.6-1.3-6.6-3.8-9.1s-5.6-3.8-9.2-3.8c-3.5 0-6.5 1.2-9 3.8-2.5 2.5-3.8 5.5-3.8 9.1v43.2c1.7-1.5 3.6-2.7 5.8-3.6s4.5-1.3 7-1.3c.7 0 1.3 0 2 .1s1.3.2 1.9.2c.9.2 1.6.6 2.1 1.4.5.8.6 1.5.4 2.4s-.6 1.6-1.4 2.1-1.5.6-2.4.4c-.4-.1-.8-.1-1.3-.2H77c-3.5 0-6.5 1.2-9 3.8-2.5 2.5-3.8 5.5-3.8 9.1v28.8c0 4.4 1.6 8.2 4.7 11.3s6.9 4.7 11.3 4.7 8.2-1.6 11.3-4.7 4.7-6.9 4.7-11.3c0-.9.3-1.7.9-2.3.6-.6 1.4-.9 2.3-.9.8 0 1.6.3 2.2.9s.9 1.4.9 2.3c0 2.8-.5 5.5-1.4 8-.8 2.4-2.2 4.6-3.9 6.5m-55.4 1.4c4.4 0 8.2-1.6 11.3-4.7s4.7-6.9 4.7-11.3V76.9c0-3.6-1.3-6.6-3.8-9.1S48.4 64 44.8 64c-.4 0-.8 0-1.3.1-.4 0-.8.1-1.3.2-.9.2-1.7 0-2.4-.4-.7-.5-1.1-1.1-1.3-2.1-.3-.8-.1-1.6.4-2.4s1.2-1.2 2-1.4c.7-.1 1.3-.2 2-.2.7-.1 1.3-.1 1.9-.1 2.5 0 4.8.4 7 1.3s4.1 2.1 5.9 3.6V19.2c0-3.6-1.3-6.6-3.8-9.1s-5.6-3.8-9.2-3.8c-3.5 0-6.5 1.2-9 3.8s-3.8 5.5-3.8 9.1c0 .4 0 .8.1 1.2 0 .4.1.8.2 1.2.2.9 0 1.7-.5 2.4s-1.2 1.1-2 1.3c-.1.1-.2.1-.3.1h-.3c-.8 0-1.4-.2-2-.7s-1-1.1-1.1-1.9c-.2-.6-.3-1.2-.3-1.8s-.1-1.3-.1-1.9v-1.6c-2 1.8-3.6 4-4.7 6.4-1.1 2.5-1.7 5.1-1.7 7.9 0 2.6.5 5 1.4 7.3s2.3 4.4 4 6.2c.7.6 1 1.3 1 2.2s-.3 1.6-1 2.3c-.3.3-.7.6-1.1.7s-.8.2-1.2.2c-.4 0-.8-.1-1.2-.2-.4-.2-.7-.4-1.1-.6-1.8-1.8-3.2-3.8-4.3-5.9-1.1-2.1-1.9-4.4-2.4-6.7-2.3 4.5-4 9.2-5.1 14.1-1.2 4.9-1.8 9.9-1.9 15 .1-.1.2-.2.3-.4.1-.2.2-.3.3-.4.5-.6 1.2-1.1 2.1-1.2.9-.2 1.7 0 2.4.5.8.5 1.2 1.2 1.4 2s0 1.6-.5 2.4c-1.9 2.8-3.4 6-4.4 9.6-1 3.5-1.5 7.1-1.5 10.8 0 7.2 1.7 13.7 5.2 19.3s7.8 9.4 13.1 11.3c-1.7-1.9-3-4.1-4-6.6s-1.4-5.2-1.4-8c0-.9.3-1.7.9-2.3.6-.6 1.4-.9 2.2-.9.9 0 1.7.3 2.3.9.6.6.9 1.4.9 2.3 0 4.4 1.6 8.2 4.7 11.3s7 4.6 11.5 4.6M122 67.2c0 2.1-.1 4.2-.3 6.2-.2 2.1-.5 4.2-.9 6.2.4 1.6.7 3.2.9 4.9.2 1.7.3 3.3.3 5 0 5.1-.8 9.9-2.4 14.6-1.6 4.6-3.8 8.7-6.8 12.3-3.1 3.8-6.6 6.6-10.5 8.6s-8.1 2.9-12.4 2.9c-.8 0-1.7 0-2.5-.1s-1.7-.2-2.5-.4c-.8.2-1.5.3-2.3.4s-1.6.1-2.3.1c-4.1 0-7.8-1-11.2-3-3.4-2-6.1-4.6-8.1-7.9-1.9 3.2-4.6 5.9-8 7.9s-7.1 3-11.2 3c-.8 0-1.6 0-2.4-.1-.8-.1-1.5-.2-2.3-.4-.8.2-1.7.3-2.5.4s-1.7.1-2.5.1c-4.3 0-8.5-1-12.4-2.9-3.9-2-7.4-4.8-10.5-8.6-2.9-3.6-5.2-7.7-6.8-12.3C.8 99.6 0 94.7 0 89.6c0-1.7.1-3.3.3-5 .1-1.6.4-3.3.7-4.8-.3-2.1-.6-4.2-.8-6.2-.1-2.2-.2-4.3-.2-6.4 0-3.9.3-7.8.9-11.6S2.4 48 3.6 44.4c1.2-3.7 2.6-7.2 4.4-10.6s3.8-6.7 6.1-9.9c1.2-3.6 3.1-6.8 5.7-9.5s5.7-4.8 9.3-6.2c1.8-2.4 4-4.4 6.8-5.9s5.8-2.3 9-2.3c3.3 0 6.4.8 9.3 2.4C57 4 59.3 6 60.9 8.6 62.7 6 65 4 67.8 2.4 70.6.8 73.6 0 77 0c3.3 0 6.3.8 9 2.2s5 3.5 6.8 5.9c3.6 1.4 6.7 3.5 9.3 6.2 2.6 2.8 4.5 5.9 5.8 9.5 2.3 3.2 4.3 6.5 6.1 9.9 1.8 3.4 3.3 7 4.5 10.6 1.2 3.7 2.1 7.4 2.7 11.2.5 4 .8 7.8.8 11.7M80.7 96c.2 0 .4 0 .6-.1.2 0 .4-.1.6-.1.8-.3 1.4-.9 1.8-1.7.4-.8.4-1.6.2-2.4-.2-.3-.3-.7-.3-1.1s-.1-.7-.1-1.1c0-1.8.6-3.2 1.9-4.5 1.3-1.2 2.8-1.9 4.5-1.9.3 0 .7 0 1.1.1.4 0 .7.1 1.1.3.8.2 1.7.2 2.4-.2.8-.4 1.4-1 1.7-1.8.3-.8.2-1.6-.2-2.4-.4-.8-1-1.4-1.8-1.7-.7-.2-1.4-.3-2.1-.4s-1.4-.2-2.2-.2c-3.6 0-6.6 1.2-9.2 3.8-2.5 2.5-3.8 5.5-3.8 9 0 .8.1 1.5.2 2.2s.3 1.4.6 2.1c.3.7.6 1.2 1.2 1.6.6.3 1.2.5 1.8.5m-.5-51.1c2.7 0 5-.9 6.8-2.8 1.9-1.9 2.8-4.1 2.8-6.8 0-.9-.3-1.7-.9-2.3s-1.4-.9-2.3-.9c-.8 0-1.6.3-2.2.9-.6.6-.9 1.4-.9 2.3 0 .8-.3 1.6-.9 2.2-.6.6-1.4.9-2.3.9s-1.7.3-2.3.9c-.6.6-.9 1.4-.9 2.3 0 .9.3 1.7.9 2.3.6.7 1.3 1 2.2 1"/></svg>