<svg id="Layer_1" xmlns="http://www.w3.org/2000/svg" viewBox="0 0 122 128"><style>.st0{fill:#b6bec5}</style><path id="Layer_3" class="st0" d="M33.7 16c5.4 0 10.5 1.8 15.2 5.5s7.7 7.5 9 11.5c.3.7.6 1.2 1.2 1.6.5.4 1.1.6 1.8.6.8 0 1.4-.2 1.9-.6.5-.4.9-.9 1.2-1.6 1.3-4 4.3-7.8 9-11.5S82.7 16 88.2 16c3.8 0 7.3.7 10.6 2.1 3.3 1.4 6.2 3.4 8.7 5.8 2.5 2.5 4.4 5.3 5.9 8.6s2.2 6.8 2.2 10.6c0 4.9-.9 9.7-2.6 14.2-1.7 4.6-3.9 8.9-6.6 13.1-2.7 4.1-5.7 8-9 11.6s-6.5 6.9-9.7 9.7c-5.6 5.1-11 9.3-16 12.8-5.1 3.4-8.7 5.8-10.8 7-2-1.2-5.6-3.6-10.7-7S39.7 96.8 34 91.7c-3.1-2.8-6.3-6.1-9.6-9.7s-6.3-7.5-9-11.6c-2.5-4.1-4.7-8.4-6.4-13S6.4 48 6.4 43.1c0-3.8.7-7.3 2.1-10.6 1.4-3.3 3.4-6.2 5.9-8.6 2.5-2.5 5.4-4.4 8.7-5.8C26.4 16.7 30 16 33.7 16m27.2 102.4c.3 0 .6 0 .9-.1.3-.1.5-.2.8-.2.2-.1 1.1-.6 2.8-1.7 1.7-1 3.9-2.5 6.6-4.3s5.8-4 9.3-6.6 7-5.5 10.7-8.9c4.3-3.8 8.1-7.7 11.5-11.7s6.4-7.9 8.9-11.8c3.2-5 5.6-10 7.1-15 1.6-5 2.4-10 2.4-14.9 0-4.6-.9-8.9-2.7-13-1.8-4.1-4.2-7.6-7.3-10.7-3.1-3-6.6-5.4-10.7-7.2s-8.4-2.6-13.1-2.6c-3.2 0-6.4.6-9.6 1.7s-6.3 2.8-9.2 4.9c-1.7 1.2-3.2 2.6-4.7 4.1s-2.7 3-3.8 4.6c-1-1.6-2.2-3.1-3.7-4.6s-3-2.8-4.7-4.1c-2.9-2.2-6-3.8-9.3-4.9s-6.4-1.7-9.5-1.7c-4.7 0-9.1.9-13.2 2.6-4.1 1.8-7.7 4.1-10.7 7.2-3.1 3-5.5 6.6-7.2 10.7C.9 34.2 0 38.5 0 43.1 0 48 .8 53 2.4 58s4 10 7.1 15c2.5 3.9 5.5 7.9 8.8 11.8 3.4 4 7.3 7.9 11.6 11.7 3.6 3.3 7.1 6.3 10.6 8.9s6.6 4.8 9.3 6.6c2.8 1.8 5 3.3 6.7 4.3s2.7 1.6 2.8 1.7c.3.1.5.2.8.2.3.1.6.2.8.2"/></svg>