<svg id="Layer_1" xmlns="http://www.w3.org/2000/svg" xmlns:xlink="http://www.w3.org/1999/xlink" viewBox="0 0 130 53"><style>.st0{fill:#1d1d1b}.st1{clip-path:url(#SVGID_2_)}.st1,.st2,.st3{fill:#1d1d1b}.st2{clip-path:url(#SVGID_4_)}.st3{clip-path:url(#SVGID_6_)}.st4{fill:#00a750}</style><path class="st0" d="M3.3 50.2L1.2 45H.3l3 7.4 2.6-5.7 2.6 5.7 3-7.4h-.9l-2.1 5.2-2.6-5.6z"/><defs><path id="SVGID_1_" d="M0 .3h130v52.4H0z"/></defs><clipPath id="SVGID_2_"><use xlink:href="#SVGID_1_" overflow="visible"/></clipPath><path class="st1" d="M21.7 48.5c0 1.8 1.5 3.3 3.3 3.3 1.8 0 3.3-1.5 3.3-3.3 0-1.8-1.5-3.3-3.3-3.3-1.8 0-3.3 1.5-3.3 3.3m7.6 0c0 2.3-1.9 4.2-4.2 4.2s-4.2-1.8-4.2-4.2c0-2.3 1.9-4.2 4.2-4.2s4.2 1.9 4.2 4.2m10.5-.3h.2c.9 0 1.7-.2 1.7-1.4 0-1.3-.8-1.5-1.7-1.5h-.2v2.9zm0 4.4H39v-8.1h1c1.3 0 2.5.4 2.5 2.2 0 1.2-.7 2.1-1.7 2.2l2.2 3.6h-1L40 49h-.2v3.6z"/><path class="st0" d="M56.7 44.5l-2.9 3.4v-3.4H53v8.1h.8v-3.5l.2-.2 2.8 3.7h1.1l-3.4-4.4 3.3-3.7z"/><defs><path id="SVGID_3_" d="M0 .3h130v52.4H0z"/></defs><clipPath id="SVGID_4_"><use xlink:href="#SVGID_3_" overflow="visible"/></clipPath><path class="st2" d="M71.1 46.1c-.3-.6-.6-.9-1.3-.9-.7 0-1.2.5-1.2 1.3 0 .7.7 1 1.2 1.3l.5.2c1 .5 1.8 1 1.8 2.3 0 1.4-1 2.5-2.3 2.5-1.2 0-2.1-.8-2.3-2.1l.8-.2c.1.8.7 1.5 1.5 1.5s1.5-.7 1.5-1.6c0-.9-.7-1.3-1.4-1.6l-.4-.2c-.9-.4-1.6-.9-1.6-2.1 0-1.3 1-2.1 2.1-2.1.8 0 1.5.5 1.9 1.3l-.8.4zm11.6 2.1h.5c.9 0 1.6-.3 1.6-1.5 0-1.3-.9-1.4-1.9-1.4h-.3v2.9zm0 4.4h-.8v-8.1h1.2c.6 0 1.3 0 1.8.4s.8 1.1.8 1.8-.2 1.3-.7 1.7c-.5.4-1.1.5-1.7.5h-.6v3.7z"/><path class="st0" d="M97.2 46.7l1.2 3H96l1.2-3zm-3.4 5.9h.9l.9-2.1h3.2l.9 2.1h.9l-3.3-7.8-3.5 7.8z"/><defs><path id="SVGID_5_" d="M0 .3h130v52.4H0z"/></defs><clipPath id="SVGID_6_"><use xlink:href="#SVGID_5_" overflow="visible"/></clipPath><path class="st3" d="M116.2 46.2c-.6-.7-1.5-1.1-2.4-1.1-1.8 0-3.2 1.6-3.2 3.3 0 1.8 1.4 3.3 3.2 3.3.9 0 1.8-.4 2.4-1.1v1.1c-.7.5-1.5.8-2.3.8-2.2 0-4.1-1.9-4.1-4.2 0-2.3 1.8-4.2 4.1-4.2.9 0 1.6.3 2.3.8v1.3z"/><path class="st0" d="M126.3 44.5v8.1h3.7v-.9h-2.9v-3.1h2.8v-.9h-2.8v-2.4h2.9v-.8z"/><g><path class="st0" d="M99 31.1c-.4 0-.8-.1-1.1-.4-.3-.2-.6-.5-.7-.9l-11.3-27c-.1-.2-.1-.4-.1-.7 0-.4.2-.9.5-1.2.3-.4.8-.6 1.3-.6.4 0 .7.1 1 .3.3.2.6.5.7.9l9.6 23 9.5-23c.2-.3.4-.6.8-.8.3-.2.7-.4 1-.4.6 0 1 .2 1.4.6.3.4.5.8.5 1.2 0 .3 0 .5-.1.7-.9 2.3-1.9 4.5-2.8 6.8-.9 2.3-1.9 4.5-2.8 6.8L100.7 30c-.2.3-.4.6-.7.9-.3.1-.7.2-1 .2m29.5 1.5c-.4 0-.7-.2-1-.6-.3-.4-.4-.8-.4-1.3V2.1c0-.5.1-.9.4-1.3.3-.4.6-.6 1-.6s.8.2 1.1.6c.3.4.4.8.4 1.3v28.6c0 .5-.2.9-.4 1.3-.3.4-.7.6-1.1.6M29.6 2.2c0-.4-.1-.7-.2-.9-.2-.4-.5-.6-.8-.8-.2-.1-.3-.1-.5-.1h-.4c-.3 0-.6.1-.9.2-.4.1-.7.4-.8.7L14.8 26.1 3.8 1.8c-.1-.4-.2-.7-.5-1C2.9.5 2.6.4 2.2.3h-.7c-.2 0-.3.1-.5.1C.6.7.3 1 .1 1.5c-.1.4-.1.8 0 1.1v28.1c0 .5.2.9.6 1.3.4.4.8.6 1.3.6s1-.2 1.4-.6c.4-.4.6-.8.6-1.3V11l9.2 20.4c.2.4.5.8 1 .9.1 0 .2.1.3.1h.6c.1 0 .2 0 .3-.1.5-.2.8-.5 1-.9l9.3-20.6v19.8c0 .5.2.9.6 1.3.4.4.8.6 1.3.6s1-.2 1.4-.6c.4-.4.6-.8.6-1.3V2.2zm29.8 1.9c-1.6 0-3.1.3-4.6 1-1.4.6-2.6 1.5-3.7 2.6-1 1.1-1.9 2.4-2.5 3.9-.6 1.5-.9 3.1-.9 4.8 0 1.7.3 3.3.9 4.8.6 1.5 1.4 2.8 2.5 3.9 1 1.1 2.3 2 3.7 2.6 1.4.6 2.9 1 4.6 1 1.6 0 3.1-.3 4.5-1 1.4-.6 2.6-1.5 3.7-2.6s1.9-2.4 2.5-3.9c.6-1.5.9-3.1.9-4.8 0-1.7-.3-3.3-.9-4.8-.6-1.5-1.4-2.8-2.5-3.9s-2.3-2-3.7-2.6c-1.4-.7-2.9-1-4.5-1m0 28.5c-2.1 0-4.1-.4-6-1.3-1.9-.8-3.5-2-4.9-3.5-1.4-1.5-2.5-3.2-3.3-5.1-.8-2-1.2-4.1-1.2-6.3s.4-4.3 1.2-6.2c.8-2 1.9-3.7 3.3-5.1 1.4-1.5 3-2.6 4.9-3.5 1.9-.8 3.9-1.3 6-1.3s4.1.4 6 1.3c1.9.8 3.5 2 4.9 3.5 1.4 1.5 2.5 3.2 3.3 5.1.8 2 1.2 4 1.2 6.2s-.4 4.3-1.2 6.3c-.8 2-1.9 3.7-3.3 5.1-1.4 1.5-3 2.6-4.9 3.5-1.9.8-3.8 1.3-6 1.3"/><path class="st4" d="M64.7 21.8c.3-.4.5-.9.8-1.4l-7.6.8 1-2.1.6-1.3 7.2-.8c.1-.4.2-.9.3-1.3l-6.8.7.6-1.3 1-2 5.4-.6c0-.4 0-.9-.1-1.3l-4.7.5 1.9-4.1c-.4-.2-.7-.4-1.1-.6l-1.9 4.2-2.7-4.1c-.3.2-.7.5-1 .8l3.1 4.7-1 2-.6 1.3-3.8-5.7c-.3.3-.6.7-.8 1.1l4 6-.6 1.3-1 2.1-4.1-6.1c-.2.5-.4 1.1-.5 1.6l3.9 5.8-1.5 3.2c.4.2.7.4 1.1.6l1.5-3.3 7.4-.7z"/></g></svg>