<svg id="Layer_1" xmlns="http://www.w3.org/2000/svg" viewBox="0 0 65 65"><style>.st0{fill:#fff}</style><path class="st0" d="M24 46.4V18.7l22.2 13.9L24 46.4zm40.6-13.9c0-2.2-.2-4.3-.6-6.3-.4-2.1-1-4.1-1.8-6-.8-1.9-1.8-3.8-2.9-5.5-1.2-1.8-2.5-3.4-4.1-4.9-1.5-1.5-3.1-2.9-4.9-4.1-1.8-1.2-3.6-2.1-5.5-2.9-1.9-.8-3.9-1.4-6-1.8-2.1-.4-4.2-.6-6.3-.6-2.1 0-4.2.2-6.3.6-2.1.4-4.1 1-6 1.8-1.9.8-3.8 1.8-5.5 2.9-1.7 1.2-3.4 2.5-4.9 4.1-1.5 1.5-2.8 3.1-4 4.9-1.2 1.8-2.1 3.6-2.9 5.5-.8 1.9-1.4 3.9-1.8 6-.4 2.1-.6 4.2-.6 6.3 0 2.2.2 4.3.6 6.3.4 2 1 4 1.8 6 .8 1.9 1.8 3.8 2.9 5.5 1.2 1.7 2.5 3.4 4 4.9 1.5 1.5 3.2 2.8 4.9 4 1.7 1.2 3.6 2.2 5.5 3 1.9.8 3.9 1.4 6 1.8 2.1.4 4.2.6 6.3.6 2.2 0 4.3-.2 6.3-.6 2.1-.4 4.1-1 6-1.8 1.9-.8 3.8-1.8 5.5-3 1.8-1.2 3.4-2.5 4.9-4 1.5-1.5 2.9-3.2 4.1-4.9s2.1-3.6 2.9-5.5c.8-1.9 1.4-3.9 1.8-6 .4-2 .6-4.1.6-6.3"/></svg>