<svg id="Layer_1" xmlns="http://www.w3.org/2000/svg" viewBox="0 0 122 128"><style>.st0{fill:#b6bec5}</style><path class="st0" d="M48.1 108.9c.9 0 1.7-.3 2.3-.9s.9-1.4.9-2.3c0-.9-.3-1.7-.9-2.3s-1.4-.9-2.3-.9H22.4c-.8 0-1.6.3-2.2.9-.6.6-.9 1.4-.9 2.3 0 .9.3 1.7.9 2.3.6.6 1.4.9 2.2.9h25.7zm0-12.9c.9 0 1.7-.3 2.3-.9s.9-1.4.9-2.2c0-.9-.3-1.7-.9-2.3s-1.4-.9-2.3-.9H22.4c-.8 0-1.6.3-2.2.9-.6.6-.9 1.4-.9 2.3 0 .8.3 1.6.9 2.2.6.6 1.4.9 2.2.9h25.7zm-6.3-25.6c.8 0 1.6-.3 2.2-.9s.9-1.4.9-2.2c0-.9-.3-1.7-.9-2.3s-1.4-1-2.2-1H22.4c-.8 0-1.6.3-2.2.9-.6.6-.9 1.4-.9 2.3 0 .8.3 1.6.9 2.2.6.6 1.4.9 2.2.9h19.4zm57.8 0c.8 0 1.6-.3 2.2-.9.6-.6.9-1.4.9-2.2 0-.9-.3-1.7-.9-2.3-.6-.6-1.4-.9-2.2-.9H80.2c-.9 0-1.7.3-2.3.9-.6.6-.9 1.4-.9 2.3 0 .8.3 1.6.9 2.2.6.6 1.4.9 2.3.9h19.4zM48.1 83.2c.9 0 1.7-.3 2.3-.9s.9-1.4.9-2.3c0-.8-.3-1.6-.9-2.2s-1.4-.9-2.3-.9H22.4c-.8 0-1.6.3-2.2.9-.6.6-.9 1.4-.9 2.2 0 .9.3 1.7.9 2.3.6.6 1.4.9 2.2.9h25.7zm51.5 25.7c.8 0 1.6-.3 2.2-.9.6-.6.9-1.4.9-2.3 0-.9-.3-1.7-.9-2.3-.6-.6-1.4-.9-2.2-.9H73.9c-.9 0-1.7.3-2.3.9-.6.6-.9 1.4-.9 2.3 0 .9.3 1.7.9 2.3.6.6 1.4.9 2.3.9h25.7zm0-12.9c.8 0 1.6-.3 2.2-.9.6-.6.9-1.4.9-2.2 0-.9-.3-1.7-.9-2.3-.6-.6-1.4-.9-2.2-.9H73.9c-.9 0-1.7.3-2.3.9-.6.6-.9 1.4-.9 2.3 0 .8.3 1.6.9 2.2.6.6 1.4.9 2.3.9h25.7zm0-12.8c.8 0 1.6-.3 2.2-.9.6-.6.9-1.4.9-2.3 0-.8-.3-1.6-.9-2.2-.6-.6-1.4-.9-2.2-.9H73.9c-.9 0-1.7.3-2.3.9-.6.6-.9 1.4-.9 2.2 0 .9.3 1.7.9 2.3.6.6 1.4.9 2.3.9h25.7zm16 28.8V22.4c0-2.6-.9-4.8-2.8-6.7-1.9-1.9-4.2-2.8-6.8-2.8H85c1.5 2.2 2.7 4.7 3.6 7.4.9 2.7 1.3 5.6 1.3 8.6 0 3.9-.8 7.6-2.3 11.1-1.5 3.5-3.6 6.6-6.2 9.2-2.6 2.6-5.7 4.7-9.2 6.2-3.5 1.5-7.3 2.2-11.3 2.2-3.9 0-7.6-.8-11.2-2.2s-6.6-3.6-9.2-6.2c-2.6-2.6-4.7-5.7-6.2-9.2-1.5-3.5-2.3-7.2-2.3-11.1 0-3 .4-5.9 1.3-8.6.8-2.7 2-5.2 3.6-7.4H16c-2.7 0-5 .9-6.8 2.8-1.9 1.9-2.8 4.1-2.8 6.7V112c0 2.7.9 4.9 2.8 6.8s4.2 2.8 6.8 2.8h90c2.7 0 5-.9 6.8-2.8 1.9-1.9 2.8-4.1 2.8-6.8M60.9 6.4c-5.6 0-10.5 1.9-14.7 5.6-4.2 3.7-6.7 8.3-7.5 13.7h3c.8 0 1.6.3 2.2.9s.9 1.4.9 2.3c0 .8-.3 1.6-.9 2.2s-1.3.9-2.1.9h-3c.7 4.9 2.8 9.1 6.3 12.7 3.6 3.5 7.8 5.6 12.7 6.3v-3c0-.8.3-1.6.9-2.2s1.4-.9 2.2-.9c.9 0 1.7.3 2.3.9s.9 1.4.9 2.2v3c4.9-.7 9.2-2.8 12.7-6.3s5.6-7.8 6.4-12.7h-3c-.9 0-1.7-.3-2.3-.9-.6-.6-.9-1.4-.9-2.2 0-.9.3-1.7.9-2.3.6-.6 1.4-.9 2.3-.9h3c-.8-5.4-3.3-10-7.5-13.7-4.1-3.8-9.1-5.6-14.8-5.6m45.1 0c4.4 0 8.2 1.6 11.3 4.7 3.1 3.1 4.7 6.9 4.7 11.3V112c0 4.4-1.6 8.2-4.7 11.3s-6.9 4.7-11.3 4.7H16c-4.4 0-8.2-1.6-11.3-4.7S0 116.4 0 112V22.4c0-4.4 1.6-8.2 4.7-11.3C7.8 7.9 11.6 6.4 16 6.4h26.8c2.4-2 5.2-3.6 8.3-4.7C54.2.6 57.5 0 60.9 0c3.4 0 6.7.6 9.8 1.7 3.1 1.1 5.9 2.7 8.4 4.7H106zM60.9 32c.9 0 1.7-.3 2.3-.9s.9-1.4.9-2.2c0-.9-.3-1.7-.9-2.3s-1.4-.9-2.3-.9c-.8 0-1.6.3-2.2.9s-.9 1.4-.9 2.3c0 .8.3 1.6.9 2.2s1.4.9 2.2.9m3.3-12.2c1.8.7 3.4 1.8 4.6 3.5 1.2 1.7 1.8 3.5 1.8 5.6 0 2.6-.9 4.8-2.8 6.7-1.9 1.9-4.2 2.8-6.8 2.8-2.6 0-4.8-.9-6.7-2.8-1.9-1.9-2.8-4.1-2.8-6.7 0-2.1.6-4 1.8-5.6 1.2-1.7 2.7-2.8 4.6-3.5V9.6c0-.9.3-1.7.9-2.3s1.4-.9 2.2-.9c.9 0 1.7.3 2.3.9s.9 1.4.9 2.3v10.2z"/></svg>