<?xml version="1.0" encoding="utf-8"?>
<!-- Generator: Adobe Illustrator 19.2.1, SVG Export Plug-In . SVG Version: 6.00 Build 0)  -->
<svg version="1.1" id="Layer_1" xmlns="http://www.w3.org/2000/svg" xmlns:xlink="http://www.w3.org/1999/xlink" x="0px" y="0px"
	 viewBox="0 0 750 750" style="enable-background:new 0 0 750 750;" xml:space="preserve">
<style type="text/css">
	.st0{fill:#566774;}
	.st1{fill:none;stroke:#566774;stroke-width:8;}
</style>
<g>
	<path class="st0" d="M229.6,527.9c-7.6-12.3-14.8-25.4-21.5-39.3l216.2,22.8l-28.2-60.5l-16.8-36l-204.7-21.6
		c-2.9-12.7-5.5-25.3-7.4-37.8l193.9,20.4l-17.8-38.2l-27.2-58.2l-154.5-16.3c0.3-12.6,0.9-24.9,1.9-36.9L298,240.6l-54.4-116.6
		c10.1-6.3,20.6-12.2,31.6-17.2c0.3-0.1,0.6-0.2,0.9-0.3L331.4,225l78.3-116.2c9.8,6.9,19.6,14.4,29.3,22.4L349.5,264l27.2,58.2
		l17.8,38.2l109.8-162.9c8,10,15.8,20.5,23.1,31.6L412.7,399.4l16.8,36l28.2,60.5l116.7-173.2c5.5,15.2,10.3,30.3,13.9,45.2
		L475.9,534.8l42.3,90.8c-10.3,6.5-21,12.6-32.3,17.9l-43.4-93.1L229.6,527.9z"/>
	<circle class="st1" cx="375" cy="375" r="371"/>
</g>
</svg>
