<svg id="Layer_1" xmlns="http://www.w3.org/2000/svg" viewBox="0 0 35 35"><style>.st0{fill:#5d6f7d}</style><path class="st0" d="M7.4 14.7c0 .1 0 .2.1.3s.1.2.2.3l9.2 9.2c.2.2.4.3.7.3.3 0 .5-.1.7-.3l9.2-9.2c.2-.2.3-.4.3-.6 0-.3-.1-.5-.3-.6-.2-.2-.4-.3-.7-.3-.3 0-.5.1-.7.3l-8.6 8.6L9 14.1c-.2-.2-.4-.3-.7-.3-.3 0-.5.1-.7.3-.1.1-.1.2-.2.3s0 .2 0 .3m-5.6 2.8c0 2.2.4 4.2 1.2 6.1.8 1.9 1.9 3.5 3.4 5 1.4 1.4 3.1 2.5 5 3.4 1.9.8 3.9 1.2 6.1 1.2s4.2-.4 6.1-1.2c1.9-.8 3.6-1.9 5-3.4 1.4-1.4 2.5-3.1 3.4-5 .8-1.9 1.2-3.9 1.2-6.1s-.4-4.2-1.2-6.1c-.8-1.9-1.9-3.6-3.4-5-1.4-1.4-3.1-2.5-5-3.3-1.9-.8-3.9-1.2-6.1-1.2s-4.2.4-6.1 1.2c-1.9.8-3.5 1.9-5 3.3C5 7.8 3.9 9.5 3 11.4c-.8 1.9-1.2 4-1.2 6.1m28.1 12.4c-.8.8-1.7 1.5-2.7 2.2-1 .6-2 1.2-3 1.6-1 .4-2.1.8-3.3 1-1.1.2-2.3.3-3.5.3-1.2 0-2.3-.1-3.4-.3-1.1-.2-2.2-.5-3.3-1-1.1-.4-2.1-1-3-1.6-.9-.6-1.8-1.4-2.7-2.2-.8-.8-1.5-1.7-2.2-2.7-.6-.9-1.2-1.9-1.6-3-.4-1.1-.8-2.1-1-3.3-.1-1.1-.2-2.2-.2-3.4s.1-2.3.3-3.5c.2-1.1.6-2.2 1-3.3.4-1 1-2 1.6-3 .6-1 1.4-1.8 2.2-2.7.8-.8 1.7-1.6 2.7-2.2.9-.6 1.9-1.2 3-1.6 1.1-.4 2.1-.8 3.3-1 1.1-.1 2.2-.2 3.4-.2 1.2 0 2.3.1 3.5.3 1.1.2 2.2.6 3.3 1 1 .4 2 1 3 1.6 1 .6 1.8 1.4 2.7 2.2.8.8 1.6 1.7 2.2 2.7.6 1 1.2 2 1.6 3s.8 2.1 1 3.3c.2 1.1.3 2.3.3 3.5s-.1 2.3-.3 3.4c-.2 1.1-.6 2.2-1 3.3-.4 1.1-1 2.1-1.6 3-.8.9-1.5 1.8-2.3 2.6"/></svg>