<?xml version="1.0" encoding="utf-8"?>
<!-- Generator: Adobe Illustrator 19.2.1, SVG Export Plug-In . SVG Version: 6.00 Build 0)  -->
<svg version="1.1" id="Layer_1" xmlns="http://www.w3.org/2000/svg" xmlns:xlink="http://www.w3.org/1999/xlink" x="0px" y="0px"
	 viewBox="0 0 122 128" style="enable-background:new 0 0 122 128;" xml:space="preserve">
<style type="text/css">
	.st0{fill:#B6BEC5;}
</style>
<path id="Layer_2" class="st0" d="M41.1,96c0.7,0,1.3-0.2,1.9-0.6c0.6-0.4,1-0.9,1.3-1.6c0.2-0.7,0.3-1.4,0.4-2.1
	c0.1-0.7,0.2-1.4,0.2-2.2c0-3.5-1.3-6.5-3.8-9s-5.5-3.8-9-3.8c-0.8,0-1.5,0.1-2.2,0.2s-1.4,0.3-2.1,0.4C27,77.6,26.4,78.2,26,79
	c-0.4,0.8-0.4,1.6-0.2,2.4c0.3,0.8,0.9,1.4,1.7,1.8s1.6,0.4,2.4,0.2c0.3-0.2,0.7-0.3,1.1-0.3s0.7-0.1,1.1-0.1c1.8,0,3.3,0.6,4.5,1.9
	c1.3,1.2,1.9,2.8,1.9,4.5c0,0.3,0,0.7-0.1,1.1s-0.1,0.7-0.3,1.1c-0.3,0.8-0.2,1.6,0.2,2.4s1,1.4,1.8,1.7c0.2,0,0.3,0,0.5,0.1
	C40.8,96,41,96,41.1,96 M41.8,44.9c0.8,0,1.6-0.3,2.2-0.9s0.9-1.4,0.9-2.3c0-0.9-0.3-1.7-0.9-2.3s-1.4-0.9-2.2-0.9
	c-0.9,0-1.7-0.3-2.3-0.9c-0.6-0.6-0.9-1.4-0.9-2.2c0-0.9-0.3-1.7-0.9-2.3c-0.6-0.6-1.4-0.9-2.2-0.9c-0.9,0-1.7,0.3-2.3,0.9
	c-0.6,0.6-0.9,1.4-0.9,2.3c0,2.7,0.9,4.9,2.8,6.8C36.8,43.9,39.1,44.9,41.8,44.9 M97.2,120.2c5.3-1.9,9.8-5.7,13.2-11.3
	c3.5-5.6,5.2-12.1,5.2-19.3c0-3.7-0.5-7.3-1.6-10.8c-1-3.5-2.5-6.7-4.3-9.6c-0.5-0.8-0.7-1.5-0.5-2.4c0.2-0.8,0.6-1.5,1.4-2
	s1.6-0.7,2.4-0.5c0.9,0.2,1.5,0.6,1.9,1.4c0.1,0.1,0.2,0.2,0.3,0.4c0.1,0.2,0.2,0.3,0.3,0.4c-0.1-5.1-0.7-10.1-1.9-15
	s-2.9-9.6-5.1-14.1c-0.5,2.3-1.3,4.6-2.4,6.7c-1.1,2.1-2.6,4.1-4.3,5.9c-0.3,0.2-0.7,0.5-1.1,0.6c-0.4,0.2-0.8,0.2-1.2,0.2
	c-0.4,0-0.8-0.1-1.3-0.2c-0.4-0.1-0.8-0.4-1-0.7c-0.7-0.7-1-1.4-1-2.3c0-0.9,0.3-1.6,0.9-2.2c1.8-1.8,3.2-3.9,4.1-6.2
	s1.4-4.7,1.4-7.3c0-2.8-0.6-5.5-1.7-7.9c-1.1-2.5-2.7-4.6-4.8-6.4c0.1,0.2,0.1,0.5,0.1,0.8v0.8c0,0.7,0,1.3-0.1,1.9l-0.3,1.8
	c-0.2,0.8-0.5,1.5-1.1,1.9c-0.6,0.5-1.3,0.7-2,0.7h-0.3c-0.1,0-0.2,0-0.3-0.1c-0.9-0.2-1.6-0.6-2.1-1.3c-0.5-0.7-0.6-1.5-0.4-2.4
	c0.1-0.4,0.1-0.8,0.2-1.2c0-0.4,0.1-0.8,0.1-1.2c0-3.6-1.3-6.6-3.8-9.1s-5.6-3.8-9.2-3.8c-3.5,0-6.5,1.2-9,3.8
	c-2.5,2.5-3.8,5.5-3.8,9.1v43.2c1.7-1.5,3.6-2.7,5.8-3.6s4.5-1.3,7-1.3c0.7,0,1.3,0,2,0.1s1.3,0.2,1.9,0.2c0.9,0.2,1.6,0.6,2.1,1.4
	c0.5,0.8,0.6,1.5,0.4,2.4s-0.6,1.6-1.4,2.1s-1.5,0.6-2.4,0.4c-0.4-0.1-0.8-0.1-1.3-0.2H77c-3.5,0-6.5,1.2-9,3.8
	c-2.5,2.5-3.8,5.5-3.8,9.1v28.8c0,4.4,1.6,8.2,4.7,11.3s6.9,4.7,11.3,4.7s8.2-1.6,11.3-4.7s4.7-6.9,4.7-11.3c0-0.9,0.3-1.7,0.9-2.3
	c0.6-0.6,1.4-0.9,2.3-0.9c0.8,0,1.6,0.3,2.2,0.9s0.9,1.4,0.9,2.3c0,2.8-0.5,5.5-1.4,8C100.3,116.1,98.9,118.3,97.2,120.2
	 M41.8,121.6c4.4,0,8.2-1.6,11.3-4.7s4.7-6.9,4.7-11.3V76.9c0-3.6-1.3-6.6-3.8-9.1S48.4,64,44.8,64c-0.4,0-0.8,0-1.3,0.1
	c-0.4,0-0.8,0.1-1.3,0.2c-0.9,0.2-1.7,0-2.4-0.4c-0.7-0.5-1.1-1.1-1.3-2.1c-0.3-0.8-0.1-1.6,0.4-2.4s1.2-1.2,2-1.4
	c0.7-0.1,1.3-0.2,2-0.2c0.7-0.1,1.3-0.1,1.9-0.1c2.5,0,4.8,0.4,7,1.3s4.1,2.1,5.9,3.6V19.2c0-3.6-1.3-6.6-3.8-9.1s-5.6-3.8-9.2-3.8
	c-3.5,0-6.5,1.2-9,3.8s-3.8,5.5-3.8,9.1c0,0.4,0,0.8,0.1,1.2c0,0.4,0.1,0.8,0.2,1.2c0.2,0.9,0,1.7-0.5,2.4s-1.2,1.1-2,1.3
	c-0.1,0.1-0.2,0.1-0.3,0.1h-0.3c-0.8,0-1.4-0.2-2-0.7s-1-1.1-1.1-1.9c-0.2-0.6-0.3-1.2-0.3-1.8s-0.1-1.3-0.1-1.9v-1.6
	c-2,1.8-3.6,4-4.7,6.4c-1.1,2.5-1.7,5.1-1.7,7.9c0,2.6,0.5,5,1.4,7.3s2.3,4.4,4,6.2c0.7,0.6,1,1.3,1,2.2s-0.3,1.6-1,2.3
	c-0.3,0.3-0.7,0.6-1.1,0.7s-0.8,0.2-1.2,0.2c-0.4,0-0.8-0.1-1.2-0.2c-0.4-0.2-0.7-0.4-1.1-0.6c-1.8-1.8-3.2-3.8-4.3-5.9
	c-1.1-2.1-1.9-4.4-2.4-6.7c-2.3,4.5-4,9.2-5.1,14.1c-1.2,4.9-1.8,9.9-1.9,15c0.1-0.1,0.2-0.2,0.3-0.4c0.1-0.2,0.2-0.3,0.3-0.4
	C7.4,65,8.1,64.5,9,64.4c0.9-0.2,1.7,0,2.4,0.5c0.8,0.5,1.2,1.2,1.4,2s0,1.6-0.5,2.4c-1.9,2.8-3.4,6-4.4,9.6
	c-1,3.5-1.5,7.1-1.5,10.8c0,7.2,1.7,13.7,5.2,19.3s7.8,9.4,13.1,11.3c-1.7-1.9-3-4.1-4-6.6s-1.4-5.2-1.4-8c0-0.9,0.3-1.7,0.9-2.3
	c0.6-0.6,1.4-0.9,2.2-0.9c0.9,0,1.7,0.3,2.3,0.9c0.6,0.6,0.9,1.4,0.9,2.3c0,4.4,1.6,8.2,4.7,11.3S37.3,121.6,41.8,121.6 M122,67.2
	c0,2.1-0.1,4.2-0.3,6.2c-0.2,2.1-0.5,4.2-0.9,6.2c0.4,1.6,0.7,3.2,0.9,4.9c0.2,1.7,0.3,3.3,0.3,5c0,5.1-0.8,9.9-2.4,14.6
	c-1.6,4.6-3.8,8.7-6.8,12.3c-3.1,3.8-6.6,6.6-10.5,8.6s-8.1,2.9-12.4,2.9c-0.8,0-1.7,0-2.5-0.1s-1.7-0.2-2.5-0.4
	c-0.8,0.2-1.5,0.3-2.3,0.4s-1.6,0.1-2.3,0.1c-4.1,0-7.8-1-11.2-3c-3.4-2-6.1-4.6-8.1-7.9c-1.9,3.2-4.6,5.9-8,7.9s-7.1,3-11.2,3
	c-0.8,0-1.6,0-2.4-0.1c-0.8-0.1-1.5-0.2-2.3-0.4c-0.8,0.2-1.7,0.3-2.5,0.4s-1.7,0.1-2.5,0.1c-4.3,0-8.5-1-12.4-2.9
	c-3.9-2-7.4-4.8-10.5-8.6c-2.9-3.6-5.2-7.7-6.8-12.3C0.8,99.6,0,94.7,0,89.6c0-1.7,0.1-3.3,0.3-5C0.4,83,0.7,81.3,1,79.8
	c-0.3-2.1-0.6-4.2-0.8-6.2C0.1,71.4,0,69.3,0,67.2c0-3.9,0.3-7.8,0.9-11.6S2.4,48,3.6,44.4c1.2-3.7,2.6-7.2,4.4-10.6
	s3.8-6.7,6.1-9.9c1.2-3.6,3.1-6.8,5.7-9.5s5.7-4.8,9.3-6.2c1.8-2.4,4-4.4,6.8-5.9s5.8-2.3,9-2.3c3.3,0,6.4,0.8,9.3,2.4
	C57,4,59.3,6,60.9,8.6C62.7,6,65,4,67.8,2.4C70.6,0.8,73.6,0,77,0c3.3,0,6.3,0.8,9,2.2s5,3.5,6.8,5.9c3.6,1.4,6.7,3.5,9.3,6.2
	c2.6,2.8,4.5,5.9,5.8,9.5c2.3,3.2,4.3,6.5,6.1,9.9c1.8,3.4,3.3,7,4.5,10.6c1.2,3.7,2.1,7.4,2.7,11.2C121.7,59.5,122,63.3,122,67.2
	 M80.7,96c0.2,0,0.4,0,0.6-0.1c0.2,0,0.4-0.1,0.6-0.1c0.8-0.3,1.4-0.9,1.8-1.7c0.4-0.8,0.4-1.6,0.2-2.4c-0.2-0.3-0.3-0.7-0.3-1.1
	s-0.1-0.7-0.1-1.1c0-1.8,0.6-3.2,1.9-4.5c1.3-1.2,2.8-1.9,4.5-1.9c0.3,0,0.7,0,1.1,0.1c0.4,0,0.7,0.1,1.1,0.3
	c0.8,0.2,1.7,0.2,2.4-0.2c0.8-0.4,1.4-1,1.7-1.8c0.3-0.8,0.2-1.6-0.2-2.4c-0.4-0.8-1-1.4-1.8-1.7c-0.7-0.2-1.4-0.3-2.1-0.4
	s-1.4-0.2-2.2-0.2c-3.6,0-6.6,1.2-9.2,3.8c-2.5,2.5-3.8,5.5-3.8,9c0,0.8,0.1,1.5,0.2,2.2s0.3,1.4,0.6,2.1c0.3,0.7,0.6,1.2,1.2,1.6
	C79.5,95.8,80.1,96,80.7,96 M80.2,44.9c2.7,0,5-0.9,6.8-2.8c1.9-1.9,2.8-4.1,2.8-6.8c0-0.9-0.3-1.7-0.9-2.3s-1.4-0.9-2.3-0.9
	c-0.8,0-1.6,0.3-2.2,0.9c-0.6,0.6-0.9,1.4-0.9,2.3c0,0.8-0.3,1.6-0.9,2.2c-0.6,0.6-1.4,0.9-2.3,0.9s-1.7,0.3-2.3,0.9
	c-0.6,0.6-0.9,1.4-0.9,2.3c0,0.9,0.3,1.7,0.9,2.3C78.6,44.6,79.3,44.9,80.2,44.9"/>
</svg>
