<svg xmlns="http://www.w3.org/2000/svg" viewBox="0 0 90 90"><style>.st0{display:none}.st1{display:inline}.st2{fill:none;stroke:#fff;stroke-width:2}.st3{fill:#fff}</style><g class="st0 st1" id="Layer_1"><circle class="st2" cx="45" cy="45" r="44"/><path class="st3" d="M62.4 49.6c.1.5.2.9.3 1.4 0 .5.1 1 .1 1.5 0 1.5-.2 2.9-.7 4.2-.5 1.3-1.1 2.5-2 3.6-.9 1.1-1.9 1.9-3.1 2.5s-2.3.9-3.6.9h-.7c-.2 0-.5-.1-.7-.1-.2 0-.4.1-.7.1h-.7c-1.2 0-2.3-.3-3.3-.9-1-.6-1.8-1.3-2.3-2.3-.6.9-1.3 1.7-2.3 2.3-1 .6-2.1.9-3.3.9h-.7c-.2 0-.4-.1-.7-.1-.2 0-.5.1-.7.1h-.7c-1.3 0-2.5-.3-3.6-.9-1.1-.6-2.2-1.4-3.1-2.5-.8-1-1.5-2.2-2-3.6-.5-1.3-.7-2.8-.7-4.2 0-.5 0-1 .1-1.5 0-.5.1-1 .2-1.4-.1-.6-.2-1.2-.2-1.8 0-.6-.1-1.2-.1-1.8 0-1.1.1-2.3.3-3.4.2-1.1.4-2.2.8-3.3s.8-2.1 1.3-3.1 1.1-2 1.8-2.9c.3-1 .9-2 1.7-2.8.8-.8 1.7-1.4 2.7-1.8.5-.7 1.2-1.3 2-1.7.8-.4 1.7-.7 2.6-.7 1 0 1.9.2 2.7.7.8.5 1.5 1.1 2 1.8.5-.8 1.2-1.4 2-1.8.8-.5 1.7-.7 2.7-.7.9 0 1.8.2 2.6.7.8.4 1.5 1 2 1.7 1 .4 1.9 1 2.7 1.8.8.8 1.3 1.7 1.7 2.8.7.9 1.2 1.9 1.8 2.9.5 1 1 2 1.3 3.1s.6 2.2.8 3.3c.2 1.1.3 2.2.3 3.4 0 .6 0 1.2-.1 1.8-.3.6-.4 1.2-.5 1.8M81.8 45C81.8 24.7 65.3 8.2 45 8.2S8.2 24.7 8.2 45 24.7 81.8 45 81.8 81.8 65.3 81.8 45"/></g><g id="Layer_2"><path class="st3" d="M65.5 37.3c0 1.6-.3 3.3-.8 4.9-.5 1.6-1.3 3.3-2.4 4.9-.8 1.3-1.8 2.6-3 3.9-1.1 1.3-2.4 2.6-3.9 3.9-1.2 1.1-2.4 2.1-3.6 2.9-1.2.9-2.2 1.6-3.1 2.2-.9.6-1.7 1.1-2.2 1.4-.6.3-.9.5-.9.6-.1 0-.2.1-.3.1h-.6c-.1 0-.2-.1-.3-.1-.1 0-.4-.2-.9-.6-.6-.3-1.3-.8-2.2-1.4-.9-.6-2-1.3-3.1-2.2-1.2-.8-2.4-1.8-3.6-2.9-1.5-1.3-2.8-2.5-3.9-3.9-1.1-1.3-2.1-2.6-3-3.9-1.1-1.6-1.9-3.3-2.4-4.9-.5-1.6-.8-3.3-.8-4.9 0-1.5.3-2.9.9-4.3.6-1.3 1.4-2.5 2.4-3.5s2.2-1.8 3.6-2.4c1.4-.6 2.8-.9 4.4-.9 1 0 2.1.2 3.2.6 1.1.4 2.1.9 3.1 1.6.6.4 1.1.9 1.6 1.3.5.5.9 1 1.2 1.5.4-.5.8-1 1.3-1.5s1-.9 1.6-1.3c1-.7 2-1.3 3.1-1.6 1.1-.4 2.2-.6 3.2-.6 1.6 0 3 .3 4.4.9 1.4.6 2.6 1.4 3.6 2.4s1.8 2.2 2.4 3.5c.7 1.4 1 2.8 1 4.3m16.3 6.9C81.8 23.8 65.3 7.4 45 7.4S8.2 23.8 8.2 44.2 24.7 81 45 81s36.8-16.5 36.8-36.8"/><circle class="st2" cx="45" cy="45" r="44"/></g></svg>