<svg id="Layer_1" xmlns="http://www.w3.org/2000/svg" viewBox="0 0 35 24"><style>.st0{fill:#fe8709}</style><path class="st0" d="M33.8 24c.3 0 .6-.1.8-.3.2-.2.3-.5.3-.7 0-.3-.1-.6-.3-.8-.2-.2-.5-.3-.8-.3H1.2c-.3 0-.6.1-.8.3-.2.1-.4.4-.4.7 0 .3.1.5.3.7.3.3.5.4.9.4h32.6zm0-10.9c.3 0 .6-.1.8-.3.2-.2.3-.5.3-.7 0-.3-.1-.6-.3-.8-.2-.2-.5-.3-.8-.3H1.2c-.3 0-.6.1-.8.3-.2.1-.4.4-.4.7 0 .3.1.5.3.7.2.2.5.3.8.3h32.7zm0-10.9c.3 0 .6-.1.8-.3.2-.2.4-.5.4-.8 0-.3-.1-.6-.3-.8-.3-.2-.5-.3-.9-.3H1.2C.8 0 .6.1.4.3c-.2.3-.4.5-.4.8 0 .3.1.5.3.7.2.2.5.3.8.3h32.7z"/></svg>