<?xml version="1.0" encoding="utf-8"?>
<!-- Generator: Adobe Illustrator 21.0.2, SVG Export Plug-In . SVG Version: 6.00 Build 0)  -->
<svg version="1.1" id="Layer_1" xmlns="http://www.w3.org/2000/svg" xmlns:xlink="http://www.w3.org/1999/xlink" x="0px" y="0px"
	 viewBox="0 0 56.7 56.7" style="enable-background:new 0 0 56.7 56.7;" xml:space="preserve">
<style type="text/css">
	.st0{fill:#F08521;}
	.st1{fill:none;stroke:#F6871F;stroke-width:2.646;stroke-miterlimit:10;}
	.st2{fill:#F6871F;}
</style>
<g>
	<path class="st0" d="M251.3,3.7c-1.4,0.2-2.6,0.7-3.8,1.3c-1.3,0.6-2.4,1.6-3.5,2.5c-1,0.8-2,1.6-3,2.4c-0.5,0.4-1.1,0.7-1.7,1
		c-0.3,0.1-0.7,0.2-1,0.3c0,0-0.1,0-0.1,0c-1-1-2.1-1.9-3.2-2.7c-1.1-0.8-2.4-1.4-3.8-1.9c-1.4-0.5-2.9-0.7-4.4-0.7
		c-1.6,0-3.2,0.4-4.7,1c-2.6,1.1-4.5,3.3-5.7,5.8c-0.3,0.7-0.6,1.3-0.8,2c-0.3,0.8-0.4,1.7-0.5,2.6c-0.1,0.6-0.1,1.1-0.1,1.7
		c0,0.8,0.1,1.6,0.2,2.4c0.2,1.2,0.6,2.4,1.1,3.6c0.4,0.9,0.8,1.7,1.2,2.6c0.6,0.2,1.2,0.3,1.9,0.4c1.6,0.2,3.2,0.2,4.8,0
		c0.7-0.1,1.3-0.3,1.9-0.5c0,0,0,0,0,0c0.3-1,0.4-2,0.7-2.9c0.5-1.6,1.2-3.1,2.6-4c0.8-0.5,1.8-0.8,2.8-0.8c0.6,0,1.1,0.1,1.6,0.3
		c0.8,0.4,1.6,0.8,2.3,1.5c0.4,0.5,0.9,1,1.2,1.6c1.3,2.2,2,4.7,2.7,7.2c0.3,0.9,0.5,1.8,0.7,2.8c0.1-0.1,0.2-0.3,0.3-0.4
		c0.4-0.6,0.8-1.2,1.2-1.7c0.4-0.4,0.7-0.7,1.2-1.1c0.4-0.3,0.9-0.6,1.4-0.8c0.7-0.3,1.4-0.6,2.2-0.9c1.2-0.4,2.4-0.6,3.7-0.8
		c3-0.4,6.1-0.5,9.2-0.4c1.1,0,2.3,0.1,3.4,0.1c0.4-1,0.8-2,1.2-3.1c0.6-1.8,0.9-3.6,1-5.5c0.1-1.9-0.2-3.9-0.8-5.7
		c-1.5-4.2-5.1-7.7-9.4-8.9c-0.6-0.2-1.3-0.2-1.8-0.3c-0.2,0-0.4,0-0.6,0C252.4,3.6,251.9,3.6,251.3,3.7L251.3,3.7z M225.5,12.6
		L225.5,12.6C225.5,12.6,225.5,12.6,225.5,12.6C225.5,12.6,225.5,12.6,225.5,12.6L225.5,12.6z M242.8,16.5L242.8,16.5
		C242.8,16.5,242.8,16.5,242.8,16.5C242.8,16.5,242.8,16.5,242.8,16.5L242.8,16.5z"/>
	<path class="st0" d="M232.4,29.6c-0.2,0.5-0.3,1.1-0.7,1.5c-0.6,0.9-1.3,1.7-2.3,2.1c-0.9,0.4-1.9,0.8-2.9,1
		c-1.4,0.3-2.8,0.4-4.2,0.4c0.4,0.6,0.9,1.1,1.3,1.6c1.5,1.8,3.1,3.6,4.6,5.4c2,2.6,3.8,5.3,6,7.7c1.1,1.1,2.3,2.2,3.7,2.9
		c0.9,0.4,1.7,0.7,2.7,0.8c0.8,0.1,1.5-0.1,2.3-0.2c0.7-0.1,1.3-0.5,2-0.7c0.5-0.2,1-0.5,1.5-0.9c1.3-0.9,2.5-2,3.6-3.2
		c2.3-2.5,4.2-5.3,6-8.1c1.3-2.1,2.6-4.3,3.8-6.5c-2.6-0.1-5.2,0-7.9,0.3c-1.3,0.2-2.6,0.5-3.9,1c-0.3,0.1-0.6,0.3-0.9,0.5
		c0,0-0.1,0.1-0.1,0.1c-0.6,0.8-1.1,1.7-1.6,2.6c-0.4,0.6-0.8,1.3-1.3,1.9c-0.4,0.6-0.9,1-1.5,1.4c-1.1,0.8-2.7,1.2-4,0.7
		c-1.2-0.4-2.3-1.4-2.9-2.6c-0.6-1.2-1-2.4-1.3-3.7c-0.2-0.9-0.4-1.9-0.6-2.8c-0.4-1.5-0.8-3-1.3-4.4
		C232.6,28.8,232.6,29.2,232.4,29.6L232.4,29.6z"/>
</g>
<g>
	<path class="st0" d="M316.5,40.4c-0.9,0.6-1.8,1.2-2.7,1.6c-1.6,0.6-3.3,1-5,1.3c-1.8,0.2-3.6,0.2-5.4,0.2c-2,0-3.9,0.1-5.9-0.2
		c-1-0.2-2-0.4-3-0.8c-0.6-0.3-1.1-0.6-1.6-0.9c-0.6-0.4-1.6-0.5-2.3-0.3c-0.7,0.2-1.4,0.7-1.8,1.4c-0.4,0.7-0.5,1.5-0.3,2.3
		c0.2,0.8,0.7,1.3,1.4,1.8c4.3,3,9.8,2.8,14.8,2.7c1.1,0,2.3,0,3.4-0.1c1.3-0.1,2.7-0.3,4-0.6c1.2-0.3,2.4-0.7,3.6-1.1
		c1.4-0.5,2.6-1.2,3.8-2.1c0.2-0.2,0.4-0.3,0.6-0.5c0.4-0.4,0.6-0.8,0.8-1.3c0.2-0.8,0.1-1.6-0.3-2.3c-0.4-0.7-1-1.2-1.8-1.4
		c-0.3-0.1-0.5-0.1-0.8-0.1C317.4,40,316.9,40.2,316.5,40.4L316.5,40.4z"/>
	<path class="st0" d="M312.5,37.9c-0.5,0.5-0.9,1.4-0.9,2.1c0.2,1.9,0.3,3.7,0.2,5.6c-0.1,0.5-0.2,1-0.4,1.5
		c-0.1,0.1-0.1,0.3-0.2,0.4c-0.1,0.1-0.1,0.1-0.2,0.2c-0.2,0.1-0.3,0.2-0.5,0.3c-0.6,0.2-1.2,0.4-1.8,0.5c-1.5,0.2-3.1,0.1-4.6,0.1
		c-0.5,0-1,0-1.5,0c-0.8,0-1.7,0-2.5,0c-0.2,0-0.4-0.1-0.6-0.2c0-0.1,0-0.1,0-0.2c-0.1-1.1,0-2.2,0-3.2c0-1.4,0-2.8,0-4.1
		c0-1.6-1.4-3-3-3c-1.6,0-3,1.4-3,3c0,1.1,0,2.1,0,3.2c0,1.1,0,2.2-0.1,3.3c0,0.5,0,0.9,0.1,1.4c0.1,0.7,0.2,1.3,0.4,1.9
		c0.2,0.5,0.3,0.8,0.6,1.2c0.4,0.6,0.9,1.1,1.5,1.5c1.5,0.9,3.2,1.2,5,1.2c0.7,0,1.5,0,2.2,0c0.7,0,1.4,0,2.1,0
		c3.5,0,7.5-0.2,10.1-2.9c1.5-1.5,2-3.7,2.2-5.7c0.2-2,0.1-3.9-0.1-5.9c-0.1-0.8-0.3-1.5-0.9-2.1c-0.6-0.6-1.3-0.9-2.1-0.9
		C313.8,37,313,37.3,312.5,37.9L312.5,37.9z M299.5,48.4c0,0,0.1,0.1,0.1,0.1C299.6,48.5,299.6,48.5,299.5,48.4L299.5,48.4z
		 M299.5,48.5c0.1,0.1,0.1,0.1,0.2,0.2C299.6,48.7,299.6,48.6,299.5,48.5L299.5,48.5z"/>
	<path class="st0" d="M312.8,38.3c-0.7,0.4-1,0.9-1.3,1.6c-0.1,0.1-0.1,0.2-0.2,0.3c-0.2,0.2-0.3,0.3-0.5,0.5
		c-0.4,0.3-0.8,0.5-1.3,0.7c-0.6,0.2-1.1,0.3-1.7,0.4c-1.6,0.2-3.2,0.2-4.8,0c-1.1-0.2-2.2-0.5-3.3-0.9c-0.2-0.1-0.3-0.2-0.5-0.2
		c-0.1-0.7-0.8-1.4-1.4-1.7c-0.7-0.4-1.5-0.5-2.3-0.3c-0.7,0.2-1.4,0.7-1.8,1.4c-0.1,0.2-0.2,0.5-0.3,0.7c-0.1,0.5-0.1,1.1,0,1.6
		c0.1,1,0.7,1.9,1.4,2.6c0.8,0.9,2,1.3,3.1,1.8c2,0.8,4.3,1.1,6.5,1.2c1.3,0.1,2.5,0,3.8-0.2c0.7-0.1,1.3-0.2,2-0.3
		c0.6-0.1,1.2-0.4,1.8-0.7c1.1-0.5,2.1-1.2,3-1.9c1-0.8,1.6-2,2-3.2c0.3-0.7,0.1-1.6-0.3-2.3c-0.4-0.7-1-1.2-1.8-1.4
		c-0.3-0.1-0.5-0.1-0.8-0.1C313.8,37.9,313.3,38,312.8,38.3L312.8,38.3z M299.5,40.9C299.5,40.9,299.5,40.9,299.5,40.9
		C299.5,40.9,299.5,40.9,299.5,40.9L299.5,40.9z M299.4,41c0,0.1,0.1,0.1,0.1,0.2C299.5,41.1,299.4,41,299.4,41
		C299.4,41,299.4,41,299.4,41L299.4,41z M299.5,41.3C299.5,41.3,299.5,41.4,299.5,41.3C299.5,41.4,299.5,41.3,299.5,41.3L299.5,41.3
		z"/>
	<path class="st0" d="M316.6,23.4c-0.9,0.6-1.8,1.2-2.7,1.6c-1.6,0.6-3.3,1-5,1.3c-1.8,0.2-3.6,0.2-5.4,0.2c-2,0-3.9,0.1-5.9-0.2
		c-1-0.2-2-0.4-3-0.8c-0.6-0.3-1.1-0.6-1.6-0.9c-0.6-0.4-1.6-0.5-2.3-0.3c-0.7,0.2-1.4,0.7-1.8,1.4c-0.4,0.7-0.5,1.5-0.3,2.3
		c0.2,0.8,0.7,1.3,1.4,1.8c4.3,3,9.8,2.8,14.8,2.7c1.1,0,2.3,0,3.4-0.1c1.3-0.1,2.7-0.3,4-0.6c1.2-0.3,2.4-0.7,3.6-1.1
		c1.4-0.5,2.6-1.2,3.8-2.1c0.2-0.2,0.4-0.3,0.6-0.5c0.4-0.4,0.6-0.8,0.8-1.3c0.2-0.8,0.1-1.6-0.3-2.3c-0.4-0.7-1-1.2-1.8-1.4
		c-0.3-0.1-0.5-0.1-0.8-0.1C317.5,23,317,23.1,316.6,23.4L316.6,23.4z"/>
	<path class="st0" d="M312.6,20.8c-0.5,0.5-0.9,1.4-0.9,2.1c0.2,1.9,0.3,3.7,0.2,5.6c-0.1,0.5-0.2,1-0.4,1.5
		c-0.1,0.1-0.1,0.3-0.2,0.4c-0.1,0.1-0.1,0.1-0.2,0.2c-0.2,0.1-0.3,0.2-0.5,0.3c-0.6,0.2-1.2,0.4-1.8,0.5c-1.5,0.2-3.1,0.1-4.6,0.1
		c-0.5,0-1,0-1.5,0c-0.8,0-1.7,0-2.5,0c-0.2,0-0.4-0.1-0.6-0.2c0-0.1,0-0.1,0-0.2c-0.1-1.1,0-2.2,0-3.2c0-1.4,0-2.8,0-4.1
		c0-1.6-1.4-3-3-3c-1.6,0-3,1.4-3,3c0,1.1,0,2.1,0,3.2c0,1.1,0,2.2-0.1,3.3c0,0.5,0,0.9,0.1,1.4c0.1,0.7,0.2,1.3,0.4,1.9
		c0.2,0.5,0.3,0.8,0.6,1.2c0.4,0.6,0.9,1.1,1.5,1.5c1.5,0.9,3.2,1.2,5,1.2c0.7,0,1.5,0,2.2,0c0.7,0,1.4,0,2.1,0
		c3.5,0,7.5-0.2,10.1-2.9c1.5-1.5,2-3.7,2.2-5.7c0.2-2,0.1-3.9-0.1-5.9c-0.1-0.8-0.3-1.5-0.9-2.1c-0.6-0.6-1.3-0.9-2.1-0.9
		C313.9,20,313.2,20.3,312.6,20.8L312.6,20.8z M299.7,31.4c0,0,0.1,0.1,0.1,0.1C299.7,31.4,299.7,31.4,299.7,31.4L299.7,31.4z
		 M299.7,31.5c0.1,0.1,0.1,0.1,0.2,0.2C299.8,31.6,299.7,31.6,299.7,31.5L299.7,31.5z"/>
	<path class="st0" d="M313,21.2c-0.7,0.4-1,0.9-1.3,1.6c-0.1,0.1-0.1,0.2-0.2,0.3c-0.2,0.2-0.3,0.3-0.5,0.5
		c-0.4,0.3-0.8,0.5-1.3,0.7c-0.6,0.2-1.1,0.3-1.7,0.4c-1.6,0.2-3.2,0.2-4.8,0c-1.1-0.2-2.2-0.5-3.3-0.9c-0.2-0.1-0.3-0.2-0.5-0.2
		c-0.1-0.7-0.8-1.4-1.4-1.7c-0.7-0.4-1.5-0.5-2.3-0.3c-0.7,0.2-1.4,0.7-1.8,1.4c-0.1,0.2-0.2,0.5-0.3,0.7c-0.1,0.5-0.1,1.1,0,1.6
		c0.1,1,0.7,1.9,1.4,2.6c0.8,0.9,2,1.3,3.1,1.8c2,0.8,4.3,1.1,6.5,1.2c1.3,0.1,2.5,0,3.8-0.2c0.7-0.1,1.3-0.2,2-0.3
		c0.6-0.1,1.2-0.4,1.8-0.7c1.1-0.5,2.1-1.2,3-1.9c1-0.8,1.6-2,2-3.2c0.3-0.7,0.1-1.6-0.3-2.3c-0.4-0.7-1-1.2-1.8-1.4
		c-0.3-0.1-0.5-0.1-0.8-0.1C314,20.8,313.4,21,313,21.2L313,21.2z M299.6,23.9C299.6,23.9,299.6,23.9,299.6,23.9
		C299.6,23.9,299.6,23.9,299.6,23.9L299.6,23.9z M299.5,23.9c0,0.1,0.1,0.1,0.1,0.2C299.6,24,299.6,24,299.5,23.9
		C299.5,23.9,299.5,23.9,299.5,23.9L299.5,23.9z M299.6,24.3C299.6,24.3,299.6,24.3,299.6,24.3C299.6,24.3,299.6,24.3,299.6,24.3
		L299.6,24.3z"/>
	<path class="st0" d="M316.2,5.7c-0.9,0.6-1.8,1.2-2.7,1.6c-1.6,0.6-3.3,1-5,1.3c-1.8,0.2-3.6,0.2-5.4,0.2c-2,0-3.9,0.1-5.9-0.2
		c-1-0.2-2-0.4-3-0.8c-0.6-0.3-1.1-0.6-1.6-0.9c-0.6-0.4-1.6-0.5-2.3-0.3c-0.7,0.2-1.4,0.7-1.8,1.4c-0.4,0.7-0.5,1.5-0.3,2.3
		c0.2,0.8,0.7,1.3,1.4,1.8c4.3,3,9.8,2.8,14.8,2.7c1.1,0,2.3,0,3.4-0.1c1.3-0.1,2.7-0.3,4-0.6c1.2-0.3,2.4-0.7,3.6-1.1
		c1.4-0.5,2.6-1.2,3.8-2.1c0.2-0.2,0.4-0.3,0.6-0.5c0.4-0.4,0.6-0.8,0.8-1.3c0.2-0.8,0.1-1.6-0.3-2.3c-0.4-0.7-1-1.2-1.8-1.4
		c-0.3-0.1-0.5-0.1-0.8-0.1C317.1,5.3,316.6,5.4,316.2,5.7L316.2,5.7z"/>
	<path class="st0" d="M312.2,3.1c-0.5,0.5-0.9,1.4-0.9,2.1c0.2,1.9,0.3,3.7,0.2,5.6c-0.1,0.5-0.2,1-0.4,1.5
		c-0.1,0.1-0.1,0.3-0.2,0.4c-0.1,0.1-0.1,0.1-0.2,0.2c-0.2,0.1-0.3,0.2-0.5,0.3c-0.6,0.2-1.2,0.4-1.8,0.5c-1.5,0.2-3.1,0.1-4.6,0.1
		c-0.5,0-1,0-1.5,0c-0.8,0-1.7,0-2.5,0c-0.2,0-0.4-0.1-0.6-0.2c0-0.1,0-0.1,0-0.2c-0.1-1.1,0-2.2,0-3.2c0-1.4,0-2.8,0-4.1
		c0-1.6-1.4-3-3-3c-1.6,0-3,1.4-3,3c0,1.1,0,2.1,0,3.2c0,1.1,0,2.2-0.1,3.3c0,0.5,0,0.9,0.1,1.4c0.1,0.7,0.2,1.3,0.4,1.9
		c0.2,0.5,0.3,0.8,0.6,1.2c0.4,0.6,0.9,1.1,1.5,1.5c1.5,0.9,3.2,1.2,5,1.2c0.7,0,1.5,0,2.2,0c0.7,0,1.4,0,2.1,0
		c3.5,0,7.5-0.2,10.1-2.9c1.5-1.5,2-3.7,2.2-5.7c0.2-2,0.1-3.9-0.1-5.9c-0.1-0.8-0.3-1.5-0.9-2.1c-0.6-0.6-1.3-0.9-2.1-0.9
		C313.5,2.3,312.7,2.6,312.2,3.1L312.2,3.1z M299.2,13.7c0,0,0.1,0.1,0.1,0.1C299.3,13.7,299.3,13.7,299.2,13.7L299.2,13.7z
		 M299.2,13.8c0.1,0.1,0.1,0.1,0.2,0.2C299.4,13.9,299.3,13.8,299.2,13.8L299.2,13.8z"/>
	<path class="st0" d="M312.6,3.5c-0.7,0.4-1,0.9-1.3,1.6c-0.1,0.1-0.1,0.2-0.2,0.3c-0.2,0.2-0.3,0.3-0.5,0.5
		c-0.4,0.3-0.8,0.5-1.3,0.7c-0.6,0.2-1.1,0.3-1.7,0.4c-1.6,0.2-3.2,0.2-4.8,0c-1.1-0.2-2.2-0.5-3.3-0.9c-0.2-0.1-0.3-0.2-0.5-0.2
		c-0.1-0.7-0.8-1.4-1.4-1.7c-0.7-0.4-1.5-0.5-2.3-0.3c-0.7,0.2-1.4,0.7-1.8,1.4c-0.1,0.2-0.2,0.5-0.3,0.7c-0.1,0.5-0.1,1.1,0,1.6
		c0.1,1,0.7,1.9,1.4,2.6c0.8,0.9,2,1.3,3.1,1.8c2,0.8,4.3,1.1,6.5,1.2c1.3,0.1,2.5,0,3.8-0.2c0.7-0.1,1.3-0.2,2-0.3
		c0.6-0.1,1.2-0.4,1.8-0.7c1.1-0.5,2.1-1.2,3-1.9c1-0.8,1.6-2,2-3.2c0.3-0.7,0.1-1.6-0.3-2.3c-0.4-0.7-1-1.2-1.8-1.4
		c-0.3-0.1-0.5-0.1-0.8-0.1C313.5,3.1,313,3.3,312.6,3.5L312.6,3.5z M299.2,6.1C299.2,6.2,299.2,6.2,299.2,6.1
		C299.2,6.2,299.2,6.2,299.2,6.1L299.2,6.1z M299.1,6.2c0,0.1,0.1,0.1,0.1,0.2C299.2,6.3,299.1,6.3,299.1,6.2
		C299.1,6.2,299.1,6.2,299.1,6.2L299.1,6.2z M299.2,6.6C299.2,6.6,299.2,6.6,299.2,6.6C299.2,6.6,299.2,6.6,299.2,6.6L299.2,6.6z"/>
</g>
<g>
	<path class="st0" d="M352.3,4.6c-0.5,0.5-1,1.1-1.5,1.7c-0.6,0.6-1.3,1.2-2,1.7c0.1-0.1,0.2-0.2,0.3-0.2c-1.1,0.9-2.3,1.6-3.6,2.3
		c-1.2,0.5-2.4,0.7-3.7,0.9c-0.9,0.1-1.9,0.2-2.8,0.3c-0.9,0.1-1.6,0.3-2.2,0.9c-0.6,0.6-0.9,1.4-0.9,2.2c0,0.6,0.2,1.2,0.5,1.7
		c-0.1,0.3-0.2,0.6-0.3,0.9c-0.2,0.9-0.3,1.8-0.3,2.7c0,0.8,0,1.6,0.1,2.5c0.1,1.1,0.3,2.3,0.6,3.4c0.8,3.6,2.3,7.1,3.8,10.5
		c0.7,1.6,1.4,3.2,2.3,4.7c1.1,2,2.4,3.8,3.8,5.6c1.2,1.5,2.5,2.9,3.8,4.2c0.6,0.7,1.3,1.3,2,1.8c0.4,0.3,0.9,0.7,1.4,1
		c0.6,0.4,1.2,0.6,1.8,0.8c0.4,0.2,1.1,0.2,1.5,0.3c0.5,0,1,0,1.5-0.1c0.8-0.1,1.6-0.5,2.3-0.9c0.8-0.4,1.5-1,2.1-1.6
		c0.7-0.6,1.3-1.4,1.9-2.1c1-1.2,1.9-2.6,2.9-3.9c1.3-1.8,2.6-3.6,3.9-5.4c2.4-3.7,4.4-7.9,5.4-12.3c0.3-1.1,0.4-2.3,0.6-3.5
		c0.2-1.2,0.4-2.4,0.6-3.6c0.2-1,0.3-1.9,0.6-2.9c0.1-0.4,0.2-0.9,0.2-1.3c0.1-0.8,0.2-1.6,0-2.4c-0.1-0.4-0.2-0.7-0.4-1.1
		c-0.2-0.4-0.6-0.8-0.9-1.2c-0.3-0.2-0.6-0.5-0.9-0.7c-0.1,0-0.2-0.1-0.3-0.1c-0.3-0.2-0.7-0.3-1.1-0.4c-0.7-0.2-1.5-0.2-2.3-0.2
		c-0.8,0-1.5,0-2.3,0c-1-0.2-1.9-0.4-2.9-0.8c-1.3-0.6-2.4-1.3-3.6-2.1c-0.5-0.4-1-0.8-1.5-1.3c-0.5-0.5-0.9-1.1-1.4-1.7
		c-0.5-0.6-1-1.2-1.6-1.6c-0.4-0.3-0.7-0.6-1.2-0.8c-0.7-0.3-1.1-0.4-1.9-0.5c-0.1,0-0.2,0-0.4,0C354.8,2.1,353.4,3.4,352.3,4.6
		L352.3,4.6z M373.7,17.3C373.7,17.3,373.7,17.3,373.7,17.3C373.7,17.3,373.8,17.3,373.7,17.3C373.8,17.3,373.7,17.3,373.7,17.3
		L373.7,17.3z M372.4,17.3L372.4,17.3C372.4,17.3,372.4,17.3,372.4,17.3C372.4,17.3,372.4,17.3,372.4,17.3L372.4,17.3z M353,22.6
		c0.1-0.8,0.8-1.5,1.4-1.9c0.5-0.3,1-0.4,1.6-0.4c0.3,0,0.6,0,0.8,0.1c0.8,0.2,1.5,0.7,1.9,1.4c0.3,0.5,0.4,1,0.4,1.6
		c0,0.2-0.1,0.4-0.1,0.6c-0.1,0.5-0.1,1-0.1,1.5c0.7-0.1,1.3-0.2,2-0.2c0.7-0.1,1.4-0.2,2.2-0.3c0.8-0.1,1.7,0.4,2.2,0.9
		c0.6,0.6,0.9,1.4,0.9,2.2s-0.3,1.6-0.9,2.2c-0.4,0.4-0.9,0.7-1.4,0.8c-0.2,0-0.4,0.1-0.6,0.1c-1.4,0.2-2.9,0.4-4.3,0.6
		c0,0.8,0,1.7,0.1,2.5c0,1.7-1.4,3.1-3.1,3.1c-1.7,0-3.1-1.4-3.1-3.1c0-0.8,0-1.6-0.1-2.4c-1.2-0.1-2.3-0.4-3.4-0.8
		c-0.5-0.1-1-0.4-1.4-0.8c-0.2-0.2-0.3-0.4-0.5-0.6c-0.4-0.7-0.5-1.6-0.3-2.4c0.2-0.8,0.7-1.5,1.4-1.9c0.4-0.3,1.1-0.5,1.6-0.5
		c0.3,0,0.5,0,0.8,0.1c0.5,0.2,1.1,0.4,1.6,0.5C352.7,24.6,352.9,23.6,353,22.6L353,22.6z M357.3,48.2
		C357.3,48.2,357.3,48.2,357.3,48.2C357.3,48.2,357.3,48.2,357.3,48.2C357.3,48.2,357.3,48.2,357.3,48.2L357.3,48.2z"/>
</g>
<g>
	<path class="st0" d="M-358.7-40.1c-1,0.1-1.9,0.5-2.8,0.8c-1.3,0.5-2.6,1.1-3.8,1.9c-2.3,1.5-4,3.4-5.6,5.6c-1.4,2-2.2,4.5-2.7,6.9
		c-0.6,3-0.6,6-0.1,9c0.2,1.1,0.4,2.2,0.8,3.3c0.2,0.6,0.4,1.1,0.7,1.7c0.8,0.9,1.7,1.8,2.7,2.5c1.4,1,2.9,1.9,4.4,2.6
		c1.6,0.6,3.3,1,5,1.3c1.7,0.2,3.4,0.2,5.1,0.1c1.2-0.2,2.4-0.6,3.6-1c1.2-0.6,2.4-1.3,3.5-2.1c2.6-2.2,4.9-4.8,7-7.4
		c0.2-0.3,0.4-0.5,0.6-0.8c0.2-0.8,0.4-1.6,0.5-2.4c0.3-1.5,0.4-3,0.5-4.5c0.1-1.7-0.2-3.4-0.5-5.1c-0.3-1.4-0.9-2.8-1.6-4.1
		c-0.7-1.5-1.9-2.9-3-4.1c-0.8-0.9-1.9-1.6-2.9-2.3c-1.1-0.8-2.5-1.3-3.8-1.7c-1.1-0.4-2.4-0.5-3.6-0.6c-0.3,0-0.5,0-0.8,0
		C-356.4-40.4-357.6-40.2-358.7-40.1L-358.7-40.1z M-350-17.5c-0.1,0.5-0.3,0.9-0.4,1.4c0,0,0,0,0,0
		C-350.3-16.6-350.2-17.1-350-17.5L-350-17.5z M-355.6-10.7c0,0.1,0,0.2,0,0.3c0,0,0,0,0,0C-355.5-10.5-355.6-10.6-355.6-10.7
		L-355.6-10.7z"/>
	<path class="st0" d="M-338.5-2.5c-1.5,1.4-3.1,2.8-4.8,4c-1.4,1-2.9,1.7-4.5,2.4c-1.6,0.7-3.2,1.1-4.9,1.4c-1.6,0.3-3.3,0.5-5,0.4
		c-2-0.1-4-0.3-6-0.7c-1.3-0.3-2.7-0.6-3.9-1.1c-1.6-0.7-3.3-1.4-4.8-2.3c-1.4-0.9-2.7-1.8-3.9-2.8c-1.3-1.1-2.5-2.2-3.6-3.5
		c0,0,0,0-0.1-0.1c-2.9,3.9-4.7,8.4-6.1,13c-1.2,4.2-1.7,8.6-2.2,12.9c-0.3,2.5-0.6,5.1-0.6,7.6c-0.1,2.9,0.2,5.9,1.2,8.6
		c0.4,1.2,1,2.4,1.8,3.5c0.5,0.6,0.9,1.2,1.5,1.7c0.6,0.6,1.3,1,2,1.6c2.5,1.9,5.6,3.1,8.5,4.1c5.7,2,12,2.9,18,3.4
		c2.9,0.2,5.9,0.2,8.8-0.1c3.6-0.4,7.1-1.1,10.5-2.2c3.1-1.1,6.2-2.6,8.8-4.7c1.1-0.9,2-2,2.8-3.2c0.9-1.3,1.4-3.1,1.8-4.7
		c0.3-1.4,0.5-2.9,0.7-4.4c0.3-2,0.5-4,0.7-6c0.4-3.4,0.6-6.8,0.7-10.3c0.1-1.5,0.1-3,0-4.5c0-1.6-0.3-3.2-0.5-4.8
		c-0.4-2.6-1.5-5.1-2.9-7.4c-2.1-3.4-5.1-6-8.5-8.1C-334.7-6.5-336.5-4.4-338.5-2.5L-338.5-2.5z M-355.7,20.9
		c1.2-1.1,2.4-2.2,3.6-3.3c1.7-1.5,3.3-3.1,5-4.6c1-0.9,2.3-1.4,3.6-1.4c1.3,0,2.5,0.5,3.5,1.4c1.9,1.9,2,5.2,0,7.1
		c-1.9,1.8-3.8,3.5-5.7,5.3c-1.1,1-2.2,1.9-3.2,3c-2.2,2.2-4.4,4.3-6.9,6.1c-0.6,0.4-1.1,0.8-1.8,1.1c-0.8,0.4-1.6,0.8-2.4,1
		c-0.8,0.2-1.6,0.3-2.4,0.3c-0.9-0.1-2.1-0.3-2.9-0.8c-1-0.7-1.8-1.3-2.5-2.4c-0.3-0.4-0.5-0.9-0.7-1.4c-0.5-1.2-0.9-2.4-1.3-3.6
		c-0.6-1.2-0.8-2.4-0.5-3.8c0.3-1.2,1.2-2.3,2.3-3c1.2-0.7,2.6-0.9,3.9-0.5c1.2,0.3,2.4,1.2,3,2.3c0.3,0.6,0.5,1.1,0.7,1.7
		C-358.7,23.9-357.2,22.3-355.7,20.9L-355.7,20.9z M-332.1,28.4c-0.1,0.8-0.2,1.6-0.3,2.4c0,0,0-0.1,0-0.1c0,0,0,0.1,0,0.1l0,0
		c0,0,0,0,0,0l0,0.1C-332.3,30-332.2,29.2-332.1,28.4L-332.1,28.4z M-359.3,41.3C-359.3,41.3-359.3,41.3-359.3,41.3
		C-359.3,41.3-359.2,41.3-359.3,41.3C-359.2,41.3-359.3,41.3-359.3,41.3L-359.3,41.3z"/>
	<polygon class="st0" points="-332.4,30.8 -332.4,30.8 -332.4,30.8 	"/>
</g>
<g>
	<path class="st0" d="M29.3,2.7c-2.2,0.2-4.3,0.8-6.4,1.7c-1.6,0.7-3.1,1.6-4.5,2.7c-0.7,0.6-1.3,1.4-1.9,2.1
		c-0.7,0.9-1.1,1.9-1.5,2.9c-0.2,0.5-0.4,1-0.5,1.5c-0.6-0.1-1.3-0.2-1.9-0.2c-0.1,0-0.2,0-0.4,0c-0.6,0-1.2,0.1-1.8,0.2
		c-0.5,0.1-1,0.2-1.6,0.4c-1,0.3-2.1,0.9-2.7,1.7c-0.5,0.6-0.8,1.1-1,1.8c-0.2,0.6-0.2,1.2-0.3,1.8C4.9,20.4,5,21.5,5,22.5
		c0,1.6,0.1,3.2,0.2,4.8c0.2,3.5,0.6,6.9,1,10.3c0.2,1.6,0.3,3.2,0.5,4.9c0.1,1.4,0.3,2.9,0.3,4.3c0,1.3,0.1,2.7,0.8,3.9
		c0.3,0.5,0.6,1,1,1.3c0.3,0.2,0.5,0.4,0.8,0.6c0.4,0.2,0.8,0.3,1.2,0.5c0.3,0.1,0.7,0.2,1.1,0.2c0.6,0.1,1.2,0.2,1.8,0.2
		c1.1,0.1,2.2,0,3.3-0.1c0.2,0,0.4,0,0.7-0.1c4.8,0.5,9.6,0.4,14.4,0.4c1.5,0,3,0,4.4,0c1,0,2,0.1,2.9,0.2c2.1,0.1,4.2,0.2,6.2-0.5
		c1.1-0.4,2-0.9,2.8-1.7c1-1,1.4-2.3,1.6-3.6c0.5-3.3,0.4-6.7,0.3-10.1c0-3.4,0.3-6.7,0.6-10.1c0.3-3.6,0.7-7.2,1-10.8
		c0.1-1.1-0.5-2-1.4-2.6c-0.6-0.9-1.6-1.5-2.7-1.5c-1.9,0-3.8,0-5.7,0c-0.2-0.6-0.4-1.2-0.6-1.8c-1.2-3.2-3.4-6.3-6.6-7.7
		c-0.5-0.2-1-0.4-1.5-0.6c-0.5-0.1-1.1-0.2-1.6-0.3c-0.4-0.1-0.9-0.1-1.3-0.1C30.1,2.7,29.7,2.7,29.3,2.7L29.3,2.7z M24.9,24.6
		c-0.5-0.1-1.1-0.2-1.6-0.4c-0.2-0.1-0.4-0.2-0.6-0.4c-0.2-0.2-0.4-0.3-0.5-0.5c-0.2-0.4-0.5-0.7-0.7-1.1c-0.3-0.9-0.5-1.8-0.7-2.7
		c-0.1-1.1-0.2-2.3-0.1-3.4c0-0.3,0-0.6-0.1-0.8c0.1-0.3,0.2-0.6,0.3-0.9c0.3-0.6,0.6-1.2,1-1.7c0.3-0.4,0.6-0.7,1-1
		c0.9-0.6,1.8-1.1,2.8-1.5c1.2-0.5,2.4-0.8,3.7-1c0.7-0.1,1.3-0.1,2,0c0.3,0.1,0.6,0.1,0.9,0.2c0.3,0.2,0.7,0.4,1,0.6
		c0.4,0.3,0.7,0.7,1.1,1.1c0.5,0.7,0.9,1.4,1.2,2.1c0.4,1,0.6,2,0.8,3c0.1,0.9,0.1,1.8,0,2.7c-0.1,0.6-0.2,1.1-0.4,1.6
		c-0.1,0.3-0.3,0.5-0.4,0.8c-0.3,0.4-0.6,0.7-1,1c-0.8,0.5-1.6,1-2.5,1.4c-1.3,0.5-2.6,0.9-4,1.1c-0.6,0.1-1.2,0.1-1.8,0.1
		C25.8,24.6,25.4,24.6,24.9,24.6L24.9,24.6z M10.7,20C10.7,20,10.7,20,10.7,20c0,0-0.1,0.1-0.1,0.1C10.6,20.1,10.7,20.1,10.7,20
		L10.7,20z M18.1,47.1c-0.1,0-0.2,0-0.3,0C18,47.1,18,47.1,18.1,47.1L18.1,47.1z"/>
	<path class="st0" d="M29.4,11.1c-0.9,0.9-1.8,1.8-2.8,2.6c-0.7,0.5-1.2,1-1.4,1.9c-0.2,0.8-0.1,1.7,0.3,2.4
		c0.4,0.7,1.1,1.2,1.9,1.4c0.7,0.2,1.8,0.2,2.4-0.3c1.4-1.1,2.7-2.3,4-3.5c1.3-1.2,1.2-3.2,0-4.4c-0.6-0.6-1.4-0.9-2.2-0.9
		C30.9,10.2,30.1,10.5,29.4,11.1L29.4,11.1z M27.1,13.3c0,0-0.1,0.1-0.1,0.1C27,13.4,27,13.4,27.1,13.3L27.1,13.3z"/>
</g>
<g>
	<path class="st0" d="M174.5,22.6c-0.5,0.1-0.9,0.3-1.3,0.5c-0.4,0.2-0.8,0.6-1.1,0.9c-0.1,0.1-0.2,0.3-0.3,0.4
		c-0.2-0.1-0.3-0.2-0.5-0.4c-0.4-0.3-1-0.5-1.5-0.7c-0.2-0.1-0.4-0.1-0.6-0.1c-0.5-0.1-0.9-0.1-1.4,0c-1.2,0.2-2.1,1.1-2.5,2.2
		c-0.4,1.1-0.2,2.3,0,3.3c0.2,0.9,0.6,1.7,1.1,2.5c0.6,1.1,1.4,2.1,2.2,3c0.8,0.8,1.8,1.6,2.9,1.9c0.3,0.1,0.6,0.1,0.9,0.1
		c0.3,0,0.6-0.1,0.9-0.2c0.6-0.2,1.2-0.6,1.7-1.1c0.7-0.7,1.1-1.6,1.7-2.3c0.4-0.5,0.8-1.1,1.1-1.7c0.9-1.4,1.6-3,1.7-4.7
		c0.1-0.7-0.2-1.6-0.6-2.2c-0.2-0.2-0.3-0.4-0.5-0.6c-0.2-0.2-0.4-0.3-0.6-0.4c-0.5-0.3-1.1-0.4-1.7-0.5c-0.2,0-0.4,0-0.6,0
		C175.1,22.5,174.8,22.5,174.5,22.6L174.5,22.6z M175.6,26.3C175.6,26.3,175.6,26.3,175.6,26.3c-0.1,0.4-0.2,0.8-0.4,1.2
		c-0.4,0.9-0.9,1.7-1.4,2.4c-0.1,0.2-0.3,0.4-0.4,0.6c0.2-1,0.4-2,0.8-3c0.1-0.3,0.3-0.6,0.5-0.9c0.1-0.1,0.2-0.2,0.3-0.3
		c0,0,0.1,0,0.1-0.1c0,0,0,0,0.1,0C175.4,26.3,175.5,26.3,175.6,26.3L175.6,26.3z M168.8,26.7C168.8,26.7,168.8,26.7,168.8,26.7
		L168.8,26.7C168.8,26.7,168.8,26.7,168.8,26.7L168.8,26.7z M168.6,26.9C168.6,26.9,168.6,26.9,168.6,26.9L168.6,26.9L168.6,26.9
		C168.6,26.9,168.6,26.9,168.6,26.9L168.6,26.9z M168.8,27C168.8,27,168.8,27,168.8,27c0.2,0.1,0.4,0.2,0.6,0.4
		c0.1,0.1,0.2,0.2,0.3,0.3c0,0,0,0,0,0.1c0.1,0.2,0.2,0.4,0.4,0.6c-0.1,0.5-0.2,0.9-0.3,1.4c-0.2-0.4-0.5-0.8-0.7-1.2
		c-0.1-0.4-0.3-0.8-0.3-1.2C168.8,27.2,168.8,27.1,168.8,27L168.8,27z M172.5,31.9c-0.1,0.1-0.2,0.2-0.2,0.3c0,0.1-0.1,0.1-0.1,0.2
		c-0.1-0.1-0.2-0.1-0.2-0.2c0,0-0.1-0.1-0.1-0.1C172.1,32.1,172.3,32,172.5,31.9L172.5,31.9z M172,32.5C172,32.5,172,32.5,172,32.5
		C172.1,32.5,172.1,32.5,172,32.5C172,32.5,172,32.5,172,32.5L172,32.5z M172,32.6C171.9,32.6,171.9,32.6,172,32.6
		C171.9,32.6,171.9,32.6,172,32.6L172,32.6z"/>
	<path class="st0" d="M175.4,24.3c-0.4,0.1-0.9,0.4-1.1,0.9c-0.5,1-1,2-1.6,3c-0.2,0.3-0.4,0.7-0.5,1c-0.3-0.6-0.6-1.2-0.9-1.8
		c-0.1-0.2-0.2-0.4-0.2-0.6c-0.2-0.5-0.4-0.9-0.9-1.1c-0.4-0.3-1-0.3-1.5-0.2c-0.5,0.1-0.9,0.4-1.1,0.9c-0.2,0.4-0.4,1-0.2,1.5
		c0.6,1.8,1.4,3.6,2.8,4.9c0.4,0.4,0.9,0.7,1.5,0.9c0.6,0.2,1.1,0.2,1.7,0.1c0.7-0.1,1.2-0.7,1.6-1.3c0.3-0.4,0.4-0.9,0.5-1.3
		c0.7-1.3,1.5-2.6,2.1-4c0.1-0.2,0.1-0.3,0.2-0.5c0.1-0.3,0.1-0.7,0-1c-0.1-0.5-0.4-0.9-0.9-1.1c-0.3-0.2-0.6-0.3-1-0.3
		C175.8,24.2,175.6,24.3,175.4,24.3L175.4,24.3z"/>
	<g>
		<g>
			<path class="st1" d="M184.4,20.9c1.3,2.2,2.1,4.7,2.1,7.5c0,7.8-6.4,14.2-14.2,14.2c-7.8,0-14.2-6.4-14.2-14.2
				s6.4-14.2,14.2-14.2c0,0,0.1,0,0.1,0"/>
			<g>
				<polygon class="st2" points="166.7,18.1 171.7,14.1 167.7,9.1 171.5,9.6 175.5,14.5 170.5,18.5 				"/>
			</g>
		</g>
	</g>
	<circle class="st1" cx="171.9" cy="28.3" r="26.3"/>
</g>
<g>
	<path class="st0" d="M96.3,3.6c-0.8,0.3-1.6,0.7-2.4,1.2c-0.9,0.5-1.7,1.2-2.4,1.9c-0.7,0.7-1.3,1.5-1.9,2.3
		c-0.7,1-1.2,2.3-1.6,3.4c-0.4,1.1-0.5,2.2-0.6,3.4c-0.1,1.1,0,2.2,0.2,3.3c0.3,2.1,1.2,4.2,2.4,5.9c1.4,1.9,3.1,3.4,5.2,4.5
		c2.1,1.1,4.5,1.6,6.9,1.5c1.3,0,2.6-0.3,3.9-0.7c1-0.3,1.9-0.8,2.8-1.3c2-1.2,3.6-2.9,4.9-4.8c0.6-0.9,1-2,1.4-3
		c0.4-1,0.5-2.1,0.6-3.2c0.1-0.7,0.1-1.4,0-2.1c-0.1-1.2-0.3-2.4-0.7-3.6c-0.7-2.1-1.9-3.9-3.4-5.5c-0.7-0.8-1.7-1.4-2.6-2
		c-0.8-0.5-1.7-0.9-2.6-1.3c-0.6-0.2-1.3-0.4-1.9-0.5c-1-0.2-1.9-0.3-2.9-0.3C99.6,2.6,97.9,2.9,96.3,3.6L96.3,3.6z M102.3,9.7
		c0.6,0.1,1.1,0.3,1.7,0.5c0.6,0.3,1.2,0.6,1.7,1c0.4,0.4,0.8,0.8,1.2,1.2c0.4,0.5,0.7,1,0.9,1.6c0.2,0.6,0.4,1.2,0.5,1.8
		c0,0.6,0,1.3,0,1.9c-0.1,0.6-0.3,1.2-0.5,1.8c-0.3,0.6-0.6,1.1-0.9,1.6c-0.4,0.5-0.8,0.9-1.3,1.3c-0.5,0.3-1,0.6-1.5,0.9
		c-0.6,0.2-1.2,0.4-1.8,0.5c-0.7,0.1-1.3,0.1-2,0c-0.6-0.1-1.2-0.3-1.8-0.5c-0.6-0.3-1.1-0.6-1.6-0.9c-0.5-0.4-0.9-0.8-1.3-1.3
		c-0.3-0.5-0.6-1-0.9-1.6c-0.2-0.6-0.4-1.2-0.5-1.8c0-0.6,0-1.3,0-1.9c0.1-0.6,0.3-1.2,0.5-1.8c0.3-0.6,0.6-1.1,1-1.7
		c0.4-0.4,0.8-0.8,1.2-1.2c0.5-0.3,1-0.6,1.5-0.9c0.6-0.2,1.2-0.4,1.8-0.5C101.1,9.7,101.7,9.7,102.3,9.7L102.3,9.7z"/>
	<path class="st0" d="M121.3,28.3c-0.1,0-0.1,0-0.2,0c-0.1,0-0.3,0.1-0.4,0.1c-1.4,0.4-2.8,1.1-3.9,2.1c-1.1,0.9-2,2-2.7,3.3
		c-0.7,1.4-1,2.8-1.1,4.3c-0.1,0.8,0,1.8,0.2,2.6c0.2,0.8,0.5,1.6,0.8,2.4c0.5,1.1,1.3,2.1,2.1,3c0.5,0.6,1.2,1,1.9,1.5
		c0.6,0.4,1.4,0.7,2.1,1c0.8,0.3,1.7,0.4,2.5,0.5c0.9,0.1,1.8,0,2.7-0.1c1.3-0.2,2.6-0.7,3.7-1.4c1.4-0.8,2.4-2,3.3-3.3
		c0.5-0.7,0.8-1.5,1.1-2.3c0.3-0.9,0.5-1.7,0.5-2.6c0.1-1.5-0.1-3-0.6-4.4c-0.6-1.6-1.5-2.9-2.7-4.1c-1.1-1.1-2.5-1.8-3.9-2.3
		c-0.6-0.2-1.3-0.3-1.9-0.4c-0.2,0-0.4-0.1-0.6-0.1c-0.3,0-0.6,0-0.9,0C122.7,28.1,122,28.2,121.3,28.3L121.3,28.3z M123.9,35.2
		c0.3,0.1,0.6,0.1,0.8,0.2c0.3,0.1,0.5,0.3,0.8,0.4c0.2,0.2,0.4,0.4,0.6,0.6c0.2,0.3,0.3,0.5,0.4,0.8c0.1,0.3,0.2,0.6,0.2,0.9
		c0,0.3,0,0.6,0,0.8c-0.1,0.3-0.1,0.6-0.2,0.9c-0.1,0.3-0.3,0.5-0.4,0.8c-0.2,0.2-0.5,0.5-0.7,0.7c-0.2,0.1-0.5,0.3-0.7,0.4
		c-0.3,0.1-0.6,0.2-0.9,0.2c-0.3,0-0.6,0-0.9,0c-0.3-0.1-0.6-0.2-0.9-0.3c-0.2-0.1-0.4-0.2-0.6-0.4c-0.2-0.2-0.5-0.4-0.7-0.7
		c-0.2-0.3-0.3-0.5-0.5-0.8c-0.1-0.3-0.2-0.6-0.2-0.8c0-0.3,0-0.6,0-0.9c0.1-0.3,0.1-0.6,0.2-0.9c0.1-0.3,0.3-0.5,0.4-0.8
		c0.2-0.2,0.4-0.5,0.7-0.7c0.3-0.2,0.5-0.3,0.8-0.5c0.3-0.1,0.5-0.2,0.8-0.2C123.3,35.2,123.6,35.2,123.9,35.2L123.9,35.2z"/>
	<path class="st0" d="M119.3,29C119.3,29,119.3,29,119.3,29c-0.2,0.1-0.3,0.2-0.5,0.2c0,0,0,0-0.1,0c0,0,0,0,0,0c0,0,0,0-0.1,0
		c-0.1,0.1-0.2,0.1-0.3,0.2c-1.7,0.9-2.2,3.3-1.3,4.9c1,1.7,3.1,2.2,4.8,1.3c0,0,0.1,0,0.1,0c0.1-0.1,0.3-0.1,0.4-0.2c0,0,0,0,0,0
		c0,0,0,0,0,0c0,0,0.1,0,0.1,0c0.8-0.3,1.4-1.3,1.6-2.1c0.3-0.9,0.1-1.9-0.4-2.7c-0.5-0.8-1.2-1.4-2.1-1.6c-0.3,0-0.6-0.1-0.9-0.1
		C120.2,28.6,119.7,28.8,119.3,29L119.3,29z"/>
	<path class="st0" d="M104.3-0.7c-1.1,1.9-2.3,3.8-2.7,5.9c-0.2,1-0.2,1.9,0.4,2.7c0.5,0.8,1.2,1.4,2.1,1.6c0.9,0.3,1.9,0.1,2.7-0.4
		c0.7-0.4,1.5-1.3,1.6-2.1c0.1-0.5,0.2-1,0.4-1.5c0.4-0.9,1-1.8,1.5-2.7c1-1.7,0.4-3.9-1.3-4.9c-0.6-0.3-1.2-0.5-1.8-0.5
		C106.2-2.4,104.9-1.8,104.3-0.7L104.3-0.7z"/>
	<path class="st0" d="M92.6-1.7c-0.8,0.5-1.4,1.2-1.6,2.1c-0.3,1-0.1,1.9,0.4,2.7c0.5,1,1.1,1.9,1.6,2.9c0.1,0.3,0.2,0.7,0.3,1
		c0.2,0.9,0.9,1.7,1.6,2.1c0.8,0.5,1.8,0.6,2.7,0.4c0.9-0.2,1.7-0.8,2.1-1.6c0.5-0.9,0.5-1.8,0.4-2.7c-0.4-2.1-1.6-3.8-2.6-5.6
		c-0.4-0.8-1.3-1.4-2.1-1.6c-0.3-0.1-0.6-0.1-0.9-0.1C93.8-2.1,93.2-2,92.6-1.7L92.6-1.7z"/>
	<path class="st0" d="M85.3,7c-0.9,0.2-1.7,0.8-2.1,1.6c-0.5,0.8-0.6,1.8-0.4,2.7c0.2,0.8,0.8,1.8,1.6,2.1c1.1,0.5,2.2,0.9,3.4,1.3
		c1.3,0.4,2.6,0.5,4,0.7c0.9,0.1,1.9-0.4,2.5-1c0.7-0.7,1-1.6,1-2.5c0-0.9-0.4-1.9-1-2.5c-0.7-0.7-1.5-1-2.5-1c-0.1,0-0.2,0-0.3,0
		c-1.1-0.2-2.3-0.5-3.3-0.9c0,0-0.1,0-0.1,0c-0.3-0.1-0.6-0.2-0.9-0.4c-0.3-0.1-0.6-0.1-0.9-0.1S85.6,6.9,85.3,7L85.3,7z M88.5,7.6
		c0.1,0,0.2,0.1,0.2,0.1C88.7,7.7,88.6,7.6,88.5,7.6L88.5,7.6z"/>
	<path class="st0" d="M90.1,16.4c-0.9,0.3-1.7,0.7-2.5,1.2c-0.8,0.5-1.5,1.1-2.2,1.6c-0.4,0.3-0.8,0.6-1.2,0.9
		c-1.6,1-2.3,3.2-1.3,4.9c1,1.6,3.2,2.3,4.9,1.3c0.8-0.5,1.6-1.1,2.4-1.8c0.6-0.5,1.3-0.9,2-1.3c0.8-0.3,1.5-0.8,1.9-1.6
		c0.5-0.8,0.6-1.8,0.4-2.7c-0.2-0.9-0.8-1.7-1.6-2.1c-0.5-0.3-1.2-0.5-1.9-0.5C90.7,16.2,90.4,16.3,90.1,16.4L90.1,16.4z M90,24.5
		c-0.1,0.1-0.1,0.1-0.2,0.2C89.9,24.6,90,24.6,90,24.5L90,24.5z"/>
	<path class="st0" d="M92.9,25.1c-0.5,2-0.7,4.1-1.1,6.1c-0.2,1-0.2,1.9,0.4,2.7c0.5,0.8,1.2,1.4,2.1,1.6c1.8,0.5,4-0.6,4.4-2.5
		c0.4-2,0.6-4.1,1.1-6.1c0.4-1.9-0.6-3.8-2.5-4.4c-0.3-0.1-0.6-0.1-0.9-0.1C94.8,22.5,93.2,23.5,92.9,25.1L92.9,25.1z"/>
	<path class="st0" d="M104.4,23.3c-1.9,0.5-3,2.5-2.5,4.4c0.3,1,0.7,2,1.4,2.9c0.5,0.8,1.1,1.5,1.5,2.4c0.4,0.8,1.3,1.4,2.1,1.6
		c0.9,0.3,1.9,0.1,2.7-0.4c0.8-0.5,1.4-1.2,1.6-2.1c0.3-1,0.1-1.8-0.4-2.7c-0.5-1.2-1.4-2.1-2.1-3.3c0-0.1-0.1-0.2-0.1-0.4
		c-0.4-1.6-1.9-2.6-3.5-2.6C105,23.2,104.7,23.2,104.4,23.3L104.4,23.3z"/>
	<path class="st0" d="M108.9,20.8c0,2,1.6,3.5,3.6,3.6c0.3,0,0.5,0,0.8,0c0.8,0.1,1.5,0.3,2.3,0.6c1.9,0.6,3.9-0.7,4.4-2.5
		c0.5-1.9-0.6-3.8-2.5-4.4c-1.6-0.5-3.3-0.8-5-0.9c0,0,0,0,0,0C110.5,17.3,108.9,18.9,108.9,20.8L108.9,20.8z"/>
	<path class="st0" d="M114.6,6.2c-0.7,0.3-1.3,0.5-1.9,0.8c-0.6,0.2-1.2,0.4-1.8,0.6c-0.9,0.1-1.6,0.4-2.3,1c-0.7,0.7-1,1.6-1,2.5
		s0.4,1.9,1,2.5c0.6,0.6,1.6,1.1,2.5,1c1-0.1,2-0.3,3-0.6c0.8-0.3,1.5-0.6,2.3-1c0.1,0,0.1,0,0.2-0.1c0.9-0.4,1.6-0.8,2.1-1.6
		c0.5-0.8,0.6-1.8,0.4-2.7c-0.2-0.9-0.8-1.7-1.6-2.1c-0.5-0.3-1.2-0.5-1.9-0.5C115.2,6.1,114.9,6.1,114.6,6.2L114.6,6.2z
		 M116.1,13.3c0,0-0.1,0-0.1,0.1C116,13.3,116,13.3,116.1,13.3L116.1,13.3z"/>
	<path class="st0" d="M114.5,27.1c-0.8,0.5-1.4,1.2-1.6,2.1c-0.2,0.8-0.2,2,0.4,2.7c0.5,0.6,0.9,1.1,1.4,1.6c0.4,0.3,0.8,0.6,1.1,1
		c0.5,0.7,1.7,1,2.5,1c0.9,0,1.9-0.4,2.5-1c0.7-0.7,1-1.6,1-2.5c0-0.3-0.1-0.6-0.1-0.9c-0.2-0.6-0.5-1.1-0.9-1.6
		c-0.5-0.7-1.3-1.1-1.9-1.8c0,0-0.1-0.1-0.1-0.1c-0.4-0.4-1-0.7-1.6-0.9c-0.3-0.1-0.6-0.1-0.9-0.1C115.7,26.6,115,26.8,114.5,27.1
		L114.5,27.1z M119.4,28.4c0-0.1-0.1-0.1-0.1-0.2C119.3,28.3,119.3,28.3,119.4,28.4C119.4,28.4,119.4,28.4,119.4,28.4L119.4,28.4z"
		/>
	<path class="st0" d="M125.4,43.7c-0.7,0.7-1,1.6-1,2.5c0,1,0.4,1.8,1,2.5c0.5,0.6,1,1.2,1.7,1.7c0.2,0.2,0.5,0.4,0.7,0.6
		c0.6,0.3,1.2,0.5,1.8,0.5c0.9,0,1.9-0.4,2.5-1s1-1.6,1-2.5c0-0.8-0.3-2-1-2.5c-0.6-0.5-1.1-1.1-1.7-1.7c-0.6-0.7-1.6-1-2.5-1
		C126.9,42.6,126,43,125.4,43.7L125.4,43.7z"/>
	<path class="st0" d="M124.2,25.1c-0.8,0.5-1.3,1.2-1.6,2.1c-0.3,0.9-0.6,1.7-0.7,2.6c0,0.3-0.1,0.6-0.1,0.9c0,0.6,0.2,1.2,0.5,1.8
		c0.5,0.8,1.2,1.4,2.1,1.6c0.9,0.3,1.9,0.1,2.7-0.4c0.7-0.4,1.5-1.3,1.6-2.1c0.1-0.9,0.4-1.7,0.7-2.6c0.3-0.9,0.1-2-0.4-2.7
		c-0.5-0.8-1.2-1.4-2.1-1.6c-0.3-0.1-0.6-0.1-0.9-0.1C125.4,24.6,124.8,24.8,124.2,25.1L124.2,25.1z"/>
	<path class="st0" d="M117.5,45.7c-0.2,1-0.4,2.1-0.7,3.1c-0.5,1.9,0.6,3.9,2.5,4.4c1.9,0.5,3.9-0.6,4.4-2.5c0.3-1,0.5-2.1,0.7-3.1
		c0.2-1,0.1-1.9-0.4-2.7c-0.5-0.8-1.2-1.4-2.1-1.6c-0.3-0.1-0.6-0.1-0.9-0.1C119.4,43.1,117.8,44.1,117.5,45.7L117.5,45.7z"/>
	<path class="st0" d="M132.7,32.5c-0.2,0.1-0.4,0.1-0.6,0.2c-0.4,0-0.9,0.1-1.3,0.1c-1,0.1-1.8,0.3-2.5,1c-0.7,0.7-1,1.6-1,2.5
		s0.4,1.9,1,2.5c0.6,0.6,1.6,1.1,2.5,1c1.3-0.1,2.6-0.1,3.8-0.5c1.8-0.6,3-2.5,2.5-4.4c-0.4-1.5-1.9-2.6-3.4-2.6
		C133.3,32.4,133,32.4,132.7,32.5L132.7,32.5z"/>
	<path class="st0" d="M113.8,36.3c-0.4,0.2-0.9,0.5-1.3,0.7c-0.1,0-0.1,0-0.2,0.1c-0.9,0.3-1.6,0.8-2.1,1.6
		c-0.5,0.8-0.6,1.8-0.4,2.7c0.5,1.8,2.5,3.1,4.4,2.5c1.1-0.4,2.2-0.9,3.2-1.5c1.7-1,2.2-3.2,1.3-4.9c-0.7-1.1-1.9-1.7-3.1-1.7
		C115,35.8,114.4,36,113.8,36.3L113.8,36.3z"/>
</g>
</svg>
