<?xml version="1.0" encoding="utf-8"?>
<!-- Generator: Adobe Illustrator 21.0.2, SVG Export Plug-In . SVG Version: 6.00 Build 0)  -->
<svg version="1.1" id="Layer_1" xmlns="http://www.w3.org/2000/svg" xmlns:xlink="http://www.w3.org/1999/xlink" x="0px" y="0px"
	 viewBox="0 0 56.7 56.7" style="enable-background:new 0 0 56.7 56.7;" xml:space="preserve">
<style type="text/css">
	.st0{fill:#F08521;}
	.st1{fill:none;stroke:#F6871F;stroke-width:2.646;stroke-miterlimit:10;}
	.st2{fill:#F6871F;}
	.st3{fill:none;stroke:#F6871F;stroke-width:7;stroke-miterlimit:10;}
</style>
<g>
	<path class="st0" d="M39.3,3.7C38,3.9,36.8,4.4,35.5,5c-1.3,0.6-2.4,1.6-3.5,2.5c-1,0.8-2,1.6-3,2.4c-0.5,0.4-1.1,0.7-1.7,1
		c-0.3,0.1-0.7,0.2-1,0.3c0,0-0.1,0-0.1,0c-1-1-2.1-1.9-3.2-2.7c-1.1-0.8-2.4-1.4-3.8-1.9c-1.4-0.5-2.9-0.7-4.4-0.7
		c-1.6,0-3.2,0.4-4.7,1C7.6,8,5.6,10.2,4.5,12.7c-0.3,0.7-0.6,1.3-0.8,2c-0.3,0.8-0.4,1.7-0.5,2.6c-0.1,0.6-0.1,1.1-0.1,1.7
		c0,0.8,0.1,1.6,0.2,2.4c0.2,1.2,0.6,2.4,1.1,3.6c0.4,0.9,0.8,1.7,1.2,2.6c0.6,0.2,1.2,0.3,1.9,0.4c1.6,0.2,3.2,0.2,4.8,0
		c0.7-0.1,1.3-0.3,1.9-0.5c0,0,0,0,0,0c0.3-1,0.4-2,0.7-2.9c0.5-1.6,1.2-3.1,2.6-4c0.8-0.5,1.8-0.8,2.8-0.8c0.6,0,1.1,0.1,1.6,0.3
		c0.8,0.4,1.6,0.8,2.3,1.5c0.4,0.5,0.9,1,1.2,1.6c1.3,2.2,2,4.7,2.7,7.2c0.3,0.9,0.5,1.8,0.7,2.8c0.1-0.1,0.2-0.3,0.3-0.4
		c0.4-0.6,0.8-1.2,1.2-1.7c0.4-0.4,0.7-0.7,1.2-1.1c0.4-0.3,0.9-0.6,1.4-0.8c0.7-0.3,1.4-0.6,2.2-0.9c1.2-0.4,2.4-0.6,3.7-0.8
		c3-0.4,6.1-0.5,9.2-0.4c1.1,0,2.3,0.1,3.4,0.1c0.4-1,0.8-2,1.2-3.1c0.6-1.8,0.9-3.6,1-5.5c0.1-1.9-0.2-3.9-0.8-5.7
		c-1.5-4.2-5.1-7.7-9.4-8.9c-0.6-0.2-1.3-0.2-1.8-0.3c-0.2,0-0.4,0-0.6,0C40.4,3.6,39.9,3.6,39.3,3.7L39.3,3.7z M13.5,12.6
		L13.5,12.6C13.5,12.6,13.5,12.6,13.5,12.6C13.5,12.6,13.5,12.6,13.5,12.6L13.5,12.6z M30.8,16.5L30.8,16.5
		C30.8,16.5,30.8,16.5,30.8,16.5C30.8,16.5,30.8,16.5,30.8,16.5L30.8,16.5z"/>
	<path class="st0" d="M20.4,29.6c-0.2,0.5-0.3,1.1-0.7,1.5c-0.6,0.9-1.3,1.7-2.3,2.1c-0.9,0.4-1.9,0.8-2.9,1
		c-1.4,0.3-2.8,0.4-4.2,0.4c0.4,0.6,0.9,1.1,1.3,1.6c1.5,1.8,3.1,3.6,4.6,5.4c2,2.6,3.8,5.3,6,7.7c1.1,1.1,2.3,2.2,3.7,2.9
		c0.9,0.4,1.7,0.7,2.7,0.8c0.8,0.1,1.5-0.1,2.3-0.2c0.7-0.1,1.3-0.5,2-0.7c0.5-0.2,1-0.5,1.5-0.9c1.3-0.9,2.5-2,3.6-3.2
		c2.3-2.5,4.2-5.3,6-8.1c1.3-2.1,2.6-4.3,3.8-6.5c-2.6-0.1-5.2,0-7.9,0.3c-1.3,0.2-2.6,0.5-3.9,1c-0.3,0.1-0.6,0.3-0.9,0.5
		c0,0-0.1,0.1-0.1,0.1c-0.6,0.8-1.1,1.7-1.6,2.6c-0.4,0.6-0.8,1.3-1.3,1.9c-0.4,0.6-0.9,1-1.5,1.4c-1.1,0.8-2.7,1.2-4,0.7
		c-1.2-0.4-2.3-1.4-2.9-2.6c-0.6-1.2-1-2.4-1.3-3.7c-0.2-0.9-0.4-1.9-0.6-2.8c-0.4-1.5-0.8-3-1.3-4.4C20.6,28.8,20.6,29.2,20.4,29.6
		L20.4,29.6z"/>
</g>
<path class="st0" d="M-679.7,960.8c-1.5,1.1-3,2-4.6,2.7c-2.7,1-5.5,1.7-8.4,2.2c-3,0.3-6,0.3-9,0.4c-3.3,0.1-6.6,0.1-9.9-0.3
	c-1.7-0.3-3.4-0.7-5.1-1.3c-0.9-0.5-1.8-1-2.7-1.6c-1.1-0.7-2.6-0.8-3.9-0.5c-1.2,0.3-2.3,1.2-3,2.3c-0.7,1.2-0.9,2.6-0.5,3.9
	c0.4,1.3,1.2,2.2,2.3,3c7.3,5,16.5,4.6,24.9,4.5c1.9,0,3.8,0,5.8-0.2c2.2-0.2,4.5-0.6,6.7-1c2.1-0.4,4.1-1.1,6-1.9
	c2.3-0.9,4.4-2,6.4-3.5c0.3-0.3,0.7-0.5,1-0.8c0.6-0.6,1-1.4,1.3-2.2c0.4-1.3,0.2-2.7-0.5-3.9c-0.7-1.1-1.7-2-3-2.3
	c-0.4-0.1-0.9-0.2-1.4-0.2C-678.1,960.1-679,960.3-679.7,960.8L-679.7,960.8z"/>
<path class="st0" d="M-686.4,956.5c-0.9,0.9-1.6,2.3-1.5,3.5c0.3,3.1,0.6,6.3,0.3,9.4c-0.1,0.8-0.3,1.6-0.6,2.4
	c-0.1,0.2-0.2,0.4-0.4,0.6c-0.1,0.1-0.2,0.2-0.3,0.3c-0.3,0.2-0.6,0.3-0.9,0.5c-1,0.4-2,0.6-3.1,0.8c-2.6,0.3-5.2,0.2-7.8,0.2
	c-0.8,0-1.6,0-2.5,0c-1.4,0-2.8,0.1-4.2-0.1c-0.4-0.1-0.7-0.2-1.1-0.3c0-0.1,0-0.2-0.1-0.3c-0.1-1.8,0-3.6,0-5.5c0.1-2.3,0-4.7,0-7
	c0-2.7-2.3-5-5-5c-2.7,0-5,2.3-5,5c0,1.8,0,3.6,0,5.4c0,1.8-0.1,3.7-0.1,5.5c0,0.8,0.1,1.6,0.2,2.4c0.1,1.1,0.3,2.2,0.7,3.2
	c0.3,0.8,0.6,1.4,1.1,2c0.8,1,1.5,1.8,2.5,2.5c2.5,1.6,5.5,2,8.4,2.1c1.2,0,2.5,0,3.7-0.1c1.2,0,2.4,0,3.6,0
	c5.9,0.1,12.6-0.3,17-4.8c2.5-2.5,3.4-6.2,3.7-9.5c0.4-3.3,0.1-6.6-0.2-9.9c-0.1-1.4-0.4-2.5-1.5-3.5c-0.9-0.9-2.2-1.5-3.5-1.5
	C-684.2,955-685.5,955.5-686.4,956.5L-686.4,956.5z M-708.2,974.2c0.1,0.1,0.2,0.1,0.2,0.2C-708.1,974.3-708.2,974.3-708.2,974.2
	L-708.2,974.2z M-708.2,974.4c0.1,0.1,0.2,0.2,0.3,0.3C-708,974.6-708.1,974.5-708.2,974.4L-708.2,974.4z"/>
<path class="st0" d="M-685.8,957.2c-1.1,0.7-1.7,1.6-2.2,2.7c-0.1,0.2-0.2,0.4-0.3,0.5c-0.3,0.3-0.5,0.5-0.8,0.8
	c-0.7,0.5-1.4,0.9-2.1,1.2c-1,0.3-1.9,0.6-2.9,0.7c-2.7,0.3-5.4,0.3-8.1,0c-1.9-0.3-3.7-0.8-5.5-1.4c-0.3-0.1-0.5-0.3-0.8-0.4
	c-0.2-1.2-1.3-2.3-2.3-2.9c-1.2-0.7-2.6-0.9-3.9-0.5c-1.2,0.3-2.3,1.2-3,2.3c-0.2,0.4-0.3,0.8-0.5,1.2c-0.2,0.9-0.2,1.8,0,2.7
	c0.2,1.7,1.2,3.1,2.4,4.3c1.4,1.4,3.3,2.2,5.2,3c3.4,1.4,7.3,1.9,11,2c2.1,0.1,4.3-0.1,6.4-0.3c1.1-0.2,2.2-0.3,3.3-0.6
	c1-0.2,2-0.7,3-1.1c1.9-0.8,3.5-1.9,5-3.3c1.6-1.4,2.7-3.3,3.4-5.3c0.4-1.2,0.1-2.8-0.5-3.9c-0.7-1.1-1.7-2-3-2.3
	c-0.4-0.1-0.9-0.2-1.3-0.2C-684.2,956.5-685,956.7-685.8,957.2L-685.8,957.2z M-708.4,961.5c0,0,0.1,0.1,0.1,0.1
	C-708.3,961.6-708.3,961.6-708.4,961.5L-708.4,961.5z M-708.5,961.7c0.1,0.1,0.1,0.2,0.2,0.3C-708.3,961.9-708.4,961.8-708.5,961.7
	C-708.5,961.7-708.5,961.7-708.5,961.7L-708.5,961.7z M-708.3,962.3C-708.3,962.3-708.3,962.3-708.3,962.3
	C-708.3,962.3-708.3,962.3-708.3,962.3L-708.3,962.3z"/>
<path class="st0" d="M-679.5,932c-1.5,1.1-3,2-4.6,2.7c-2.7,1-5.5,1.7-8.4,2.2c-3,0.3-6,0.3-9,0.4c-3.3,0.1-6.6,0.1-9.9-0.3
	c-1.7-0.3-3.4-0.7-5.1-1.3c-0.9-0.5-1.8-1-2.7-1.6c-1.1-0.7-2.6-0.8-3.9-0.5c-1.2,0.3-2.3,1.2-3,2.3c-0.7,1.2-0.9,2.6-0.5,3.9
	c0.4,1.3,1.2,2.2,2.3,3c7.3,5,16.5,4.6,24.9,4.5c1.9,0,3.8,0,5.8-0.2c2.2-0.2,4.5-0.6,6.7-1c2.1-0.4,4.1-1.1,6-1.9
	c2.3-0.9,4.4-2,6.4-3.5c0.3-0.3,0.7-0.5,1-0.8c0.6-0.6,1-1.4,1.3-2.2c0.4-1.3,0.2-2.7-0.5-3.9c-0.7-1.1-1.7-2-3-2.3
	c-0.4-0.1-0.9-0.2-1.4-0.2C-677.9,931.4-678.8,931.6-679.5,932L-679.5,932z"/>
<path class="st0" d="M-686.2,927.8c-0.9,0.9-1.6,2.3-1.5,3.5c0.3,3.1,0.6,6.3,0.3,9.4c-0.1,0.8-0.3,1.6-0.6,2.4
	c-0.1,0.2-0.2,0.4-0.4,0.6c-0.1,0.1-0.2,0.2-0.3,0.3c-0.3,0.2-0.6,0.3-0.9,0.5c-1,0.4-2,0.6-3.1,0.8c-2.6,0.3-5.2,0.2-7.8,0.2
	c-0.8,0-1.6,0-2.5,0c-1.4,0-2.8,0.1-4.2-0.1c-0.4-0.1-0.7-0.2-1.1-0.3c0-0.1,0-0.2-0.1-0.3c-0.1-1.8,0-3.6,0-5.5c0.1-2.3,0-4.7,0-7
	c0-2.7-2.3-5-5-5c-2.7,0-5,2.3-5,5c0,1.8,0,3.6,0,5.4c0,1.8-0.1,3.7-0.1,5.5c0,0.8,0.1,1.6,0.2,2.4c0.1,1.1,0.3,2.2,0.7,3.2
	c0.3,0.8,0.6,1.4,1.1,2c0.8,1,1.5,1.8,2.5,2.5c2.5,1.6,5.5,2,8.4,2.1c1.2,0,2.5,0,3.7-0.1c1.2,0,2.4,0,3.6,0
	c5.9,0.1,12.6-0.3,17-4.8c2.5-2.5,3.4-6.2,3.7-9.5c0.4-3.3,0.1-6.6-0.2-9.9c-0.1-1.4-0.4-2.5-1.5-3.5c-0.9-0.9-2.2-1.5-3.5-1.5
	C-684,926.3-685.3,926.8-686.2,927.8L-686.2,927.8z M-708,945.5c0.1,0.1,0.2,0.1,0.2,0.2C-707.9,945.6-707.9,945.6-708,945.5
	L-708,945.5z M-708,945.7c0.1,0.1,0.2,0.2,0.3,0.3C-707.8,945.9-707.9,945.8-708,945.7L-708,945.7z"/>
<path class="st0" d="M-685.6,928.4c-1.1,0.7-1.7,1.6-2.2,2.7c-0.1,0.2-0.2,0.4-0.3,0.5c-0.3,0.3-0.5,0.5-0.8,0.8
	c-0.7,0.5-1.4,0.9-2.1,1.2c-1,0.3-1.9,0.6-2.9,0.7c-2.7,0.3-5.4,0.3-8.1,0c-1.9-0.3-3.7-0.8-5.5-1.4c-0.3-0.1-0.5-0.3-0.8-0.4
	c-0.2-1.2-1.3-2.3-2.3-2.9c-1.2-0.7-2.6-0.9-3.9-0.5c-1.2,0.3-2.3,1.2-3,2.3c-0.2,0.4-0.3,0.8-0.5,1.2c-0.2,0.9-0.2,1.8,0,2.7
	c0.2,1.7,1.2,3.1,2.4,4.3c1.4,1.4,3.3,2.2,5.2,3c3.4,1.4,7.3,1.9,11,2c2.1,0.1,4.3-0.1,6.4-0.3c1.1-0.2,2.2-0.3,3.3-0.6
	c1-0.2,2-0.7,3-1.1c1.9-0.8,3.5-1.9,5-3.3c1.6-1.4,2.7-3.3,3.4-5.3c0.4-1.2,0.1-2.8-0.5-3.9c-0.7-1.1-1.7-2-3-2.3
	c-0.4-0.1-0.9-0.2-1.3-0.2C-683.9,927.8-684.8,928-685.6,928.4L-685.6,928.4z M-708.1,932.8c0,0,0.1,0.1,0.1,0.1
	C-708.1,932.9-708.1,932.9-708.1,932.8L-708.1,932.8z M-708.2,932.9c0.1,0.1,0.1,0.2,0.2,0.3C-708.1,933.1-708.2,933-708.2,932.9
	C-708.2,932.9-708.2,932.9-708.2,932.9L-708.2,932.9z M-708.1,933.5C-708.1,933.6-708.1,933.6-708.1,933.5
	C-708.1,933.6-708.1,933.6-708.1,933.5L-708.1,933.5z"/>
<path class="st0" d="M-680.2,902.2c-1.5,1.1-3,2-4.6,2.7c-2.7,1-5.5,1.7-8.4,2.2c-3,0.3-6,0.3-9,0.4c-3.3,0.1-6.6,0.1-9.9-0.3
	c-1.7-0.3-3.4-0.7-5.1-1.3c-0.9-0.5-1.8-1-2.7-1.6c-1.1-0.7-2.6-0.8-3.9-0.5c-1.2,0.3-2.3,1.2-3,2.3c-0.7,1.2-0.9,2.6-0.5,3.9
	c0.4,1.3,1.2,2.2,2.3,3c7.3,5,16.5,4.6,24.9,4.5c1.9,0,3.8,0,5.8-0.2c2.2-0.2,4.5-0.6,6.7-1c2.1-0.4,4.1-1.1,6-1.9
	c2.3-0.9,4.4-2,6.4-3.5c0.3-0.3,0.7-0.5,1-0.8c0.6-0.6,1-1.4,1.3-2.2c0.4-1.3,0.2-2.7-0.5-3.9c-0.7-1.1-1.7-2-3-2.3
	c-0.4-0.1-0.9-0.2-1.4-0.2C-678.6,901.5-679.5,901.7-680.2,902.2L-680.2,902.2z"/>
<path class="st0" d="M-686.9,897.9c-0.9,0.9-1.6,2.3-1.5,3.5c0.3,3.1,0.6,6.3,0.3,9.4c-0.1,0.8-0.3,1.6-0.6,2.4
	c-0.1,0.2-0.2,0.4-0.4,0.6c-0.1,0.1-0.2,0.2-0.3,0.3c-0.3,0.2-0.6,0.3-0.9,0.5c-1,0.4-2,0.6-3.1,0.8c-2.6,0.3-5.2,0.2-7.8,0.2
	c-0.8,0-1.6,0-2.5,0c-1.4,0-2.8,0.1-4.2-0.1c-0.4-0.1-0.7-0.2-1.1-0.3c0-0.1,0-0.2-0.1-0.3c-0.1-1.8,0-3.6,0-5.5c0.1-2.3,0-4.7,0-7
	c0-2.7-2.3-5-5-5c-2.7,0-5,2.3-5,5c0,1.8,0,3.6,0,5.4c0,1.8-0.1,3.7-0.1,5.5c0,0.8,0.1,1.6,0.2,2.4c0.1,1.1,0.3,2.2,0.7,3.2
	c0.3,0.8,0.6,1.4,1.1,2c0.8,1,1.5,1.8,2.5,2.5c2.5,1.6,5.5,2,8.4,2.1c1.2,0,2.5,0,3.7-0.1c1.2,0,2.4,0,3.6,0
	c5.9,0.1,12.6-0.3,17-4.8c2.5-2.5,3.4-6.2,3.7-9.5c0.4-3.3,0.1-6.6-0.2-9.9c-0.1-1.4-0.4-2.5-1.5-3.5c-0.9-0.9-2.2-1.5-3.5-1.5
	C-684.7,896.4-686,897-686.9,897.9L-686.9,897.9z M-708.7,915.6c0.1,0.1,0.2,0.1,0.2,0.2C-708.6,915.8-708.6,915.7-708.7,915.6
	L-708.7,915.6z M-708.7,915.8c0.1,0.1,0.2,0.2,0.3,0.3C-708.5,916.1-708.6,916-708.7,915.8L-708.7,915.8z"/>
<path class="st0" d="M-686.3,898.6c-1.1,0.7-1.7,1.6-2.2,2.7c-0.1,0.2-0.2,0.4-0.3,0.5c-0.3,0.3-0.5,0.5-0.8,0.8
	c-0.7,0.5-1.4,0.9-2.1,1.2c-1,0.3-1.9,0.6-2.9,0.7c-2.7,0.3-5.4,0.3-8.1,0c-1.9-0.3-3.7-0.8-5.5-1.4c-0.3-0.1-0.5-0.3-0.8-0.4
	c-0.2-1.2-1.3-2.3-2.3-2.9c-1.2-0.7-2.6-0.9-3.9-0.5c-1.2,0.3-2.3,1.2-3,2.3c-0.2,0.4-0.3,0.8-0.5,1.2c-0.2,0.9-0.2,1.8,0,2.7
	c0.2,1.7,1.2,3.1,2.4,4.3c1.4,1.4,3.3,2.2,5.2,3c3.4,1.4,7.3,1.9,11,2c2.1,0.1,4.3-0.1,6.4-0.3c1.1-0.2,2.2-0.3,3.3-0.6
	c1-0.2,2-0.7,3-1.1c1.9-0.8,3.5-1.9,5-3.3c1.6-1.4,2.7-3.3,3.4-5.3c0.4-1.2,0.1-2.8-0.5-3.9c-0.7-1.1-1.7-2-3-2.3
	c-0.4-0.1-0.9-0.2-1.3-0.2C-684.6,897.9-685.5,898.1-686.3,898.6L-686.3,898.6z M-708.8,903c0,0,0.1,0.1,0.1,0.1
	C-708.8,903-708.8,903-708.8,903L-708.8,903z M-708.9,903.1c0.1,0.1,0.1,0.2,0.2,0.3C-708.8,903.3-708.9,903.2-708.9,903.1
	C-708.9,903.1-708.9,903.1-708.9,903.1L-708.9,903.1z M-708.8,903.7C-708.8,903.7-708.8,903.7-708.8,903.7
	C-708.8,903.7-708.8,903.7-708.8,903.7L-708.8,903.7z"/>
<path class="st0" d="M20.9,1115.8c-0.8,0.9-1.6,1.8-2.4,2.6c-1,1-2.1,1.9-3.3,2.7c0.2-0.1,0.3-0.3,0.5-0.4c-1.8,1.4-3.7,2.6-5.7,3.6
	c-1.9,0.7-3.9,1.2-5.9,1.5c-1.5,0.2-3,0.3-4.4,0.4c-1.4,0.1-2.5,0.5-3.5,1.5c-0.9,0.9-1.5,2.2-1.5,3.5c0,1,0.3,1.9,0.8,2.7
	c-0.2,0.5-0.3,1-0.4,1.5c-0.3,1.4-0.5,2.9-0.5,4.4c-0.1,1.3,0,2.6,0.2,3.9c0.2,1.8,0.5,3.6,0.9,5.4c1.3,5.8,3.7,11.4,6.1,16.8
	c1.1,2.6,2.3,5.1,3.6,7.6c1.7,3.2,3.8,6.1,6,8.9c1.9,2.4,3.9,4.6,6.1,6.8c1,1,2.1,2,3.3,2.9c0.7,0.6,1.4,1.1,2.2,1.6
	c0.9,0.6,1.9,1,2.9,1.4c0.7,0.3,1.7,0.4,2.4,0.4c0.8,0,1.5,0,2.4-0.2c1.3-0.2,2.5-0.8,3.7-1.4c1.3-0.6,2.4-1.6,3.4-2.6
	c1.1-1,2.1-2.2,3.1-3.4c1.6-2,3-4.1,4.6-6.2c2.1-2.9,4.2-5.7,6.1-8.6c3.9-6,7-12.6,8.6-19.6c0.4-1.8,0.7-3.7,1-5.5
	c0.3-1.9,0.7-3.8,1-5.8c0.3-1.5,0.6-3.1,0.9-4.6c0.2-0.7,0.3-1.4,0.4-2.1c0.2-1.3,0.3-2.6,0-3.9c-0.1-0.6-0.3-1.2-0.6-1.7
	c-0.4-0.7-0.9-1.3-1.4-1.9c-0.5-0.4-0.9-0.7-1.4-1.1c-0.2-0.1-0.3-0.1-0.5-0.2c-0.5-0.3-1.1-0.5-1.7-0.6c-1.2-0.3-2.5-0.3-3.7-0.3
	c-1.2,0.1-2.4,0.1-3.6,0c-1.6-0.3-3.1-0.7-4.6-1.2c-2-0.9-3.9-2.1-5.7-3.4c-0.8-0.6-1.6-1.3-2.3-2c-0.8-0.8-1.5-1.8-2.2-2.7
	c-0.8-1-1.6-1.9-2.5-2.6c-0.6-0.5-1.2-0.9-1.9-1.3c-1.1-0.5-1.8-0.7-3-0.8c-0.2,0-0.4,0-0.6,0C24.9,1111.9,22.7,1113.9,20.9,1115.8
	L20.9,1115.8z M55.2,1136.1C55.2,1136.1,55.2,1136.1,55.2,1136.1C55.2,1136.1,55.2,1136.1,55.2,1136.1
	C55.2,1136.1,55.2,1136.1,55.2,1136.1L55.2,1136.1z M53.1,1136.1L53.1,1136.1C53.1,1136.1,53.1,1136.1,53.1,1136.1
	C53.1,1136.1,53.1,1136.1,53.1,1136.1L53.1,1136.1z M22.1,1144.6c0.2-1.2,1.3-2.4,2.3-3c0.8-0.5,1.6-0.7,2.5-0.7
	c0.4,0,0.9,0.1,1.3,0.2c1.2,0.3,2.3,1.2,3,2.3c0.5,0.8,0.7,1.6,0.7,2.5c0,0.3-0.1,0.6-0.1,0.9c-0.1,0.8-0.2,1.6-0.2,2.4
	c1.1-0.1,2.1-0.3,3.2-0.4c1.1-0.2,2.3-0.3,3.5-0.5c1.2-0.2,2.7,0.6,3.5,1.5c0.9,0.9,1.5,2.2,1.5,3.5s-0.5,2.6-1.5,3.5
	c-0.6,0.6-1.4,1.1-2.2,1.3c-0.3,0.1-0.7,0.1-1,0.1c-2.3,0.3-4.6,0.7-6.9,0.9c0,1.4,0.1,2.7,0.1,4.1c0,2.7-2.3,5-5,5
	c-2.7,0-5-2.3-5-5c0-1.3,0-2.6-0.1-3.9c-1.8-0.2-3.6-0.6-5.3-1.3c-0.8-0.2-1.6-0.7-2.2-1.3c-0.3-0.3-0.5-0.7-0.8-1
	c-0.7-1.2-0.9-2.6-0.5-3.9c0.3-1.2,1.2-2.3,2.3-3c0.7-0.4,1.7-0.7,2.6-0.7c0.4,0,0.9,0.1,1.2,0.2c0.9,0.3,1.7,0.6,2.6,0.8
	C21.7,1147.7,21.9,1146.1,22.1,1144.6L22.1,1144.6z M29,1185.5C29,1185.5,29,1185.5,29,1185.5C29,1185.5,29,1185.5,29,1185.5
	C29,1185.5,29,1185.5,29,1185.5L29,1185.5z"/>
<path class="st0" d="M25.8,1639.4c-1,0.1-1.9,0.5-2.8,0.8c-1.3,0.5-2.6,1.1-3.8,1.9c-2.3,1.5-4,3.4-5.6,5.6c-1.4,2-2.2,4.5-2.7,6.9
	c-0.6,3-0.6,6-0.1,9c0.2,1.1,0.4,2.2,0.8,3.3c0.2,0.6,0.4,1.1,0.7,1.7c0.8,0.9,1.7,1.8,2.7,2.5c1.4,1,2.9,1.9,4.4,2.6
	c1.6,0.6,3.3,1,5,1.3c1.7,0.2,3.4,0.2,5.1,0.1c1.2-0.2,2.4-0.6,3.6-1c1.2-0.6,2.4-1.3,3.5-2.1c2.6-2.2,4.9-4.8,7-7.4
	c0.2-0.3,0.4-0.5,0.6-0.8c0.2-0.8,0.4-1.6,0.5-2.4c0.3-1.5,0.4-3,0.5-4.5c0.1-1.7-0.2-3.4-0.5-5.1c-0.3-1.4-0.9-2.8-1.6-4.1
	c-0.7-1.5-1.9-2.9-3-4.1c-0.8-0.9-1.9-1.6-2.9-2.3c-1.1-0.8-2.5-1.3-3.8-1.7c-1.1-0.4-2.4-0.5-3.6-0.6c-0.3,0-0.5,0-0.8,0
	C28,1639,26.9,1639.2,25.8,1639.4L25.8,1639.4z M34.4,1661.9c-0.1,0.5-0.3,0.9-0.4,1.4c0,0,0,0,0,0
	C34.1,1662.8,34.3,1662.4,34.4,1661.9L34.4,1661.9z M28.9,1668.7c0,0.1,0,0.2,0,0.3c0,0,0,0,0,0
	C28.9,1668.9,28.9,1668.8,28.9,1668.7L28.9,1668.7z"/>
<path class="st0" d="M46,1677c-1.5,1.4-3.1,2.8-4.8,4c-1.4,1-2.9,1.7-4.5,2.4c-1.6,0.7-3.2,1.1-4.9,1.4c-1.6,0.3-3.3,0.5-5,0.4
	c-2-0.1-4-0.3-6-0.7c-1.3-0.3-2.7-0.6-3.9-1.1c-1.6-0.7-3.3-1.4-4.8-2.3c-1.4-0.9-2.7-1.8-3.9-2.8c-1.3-1.1-2.5-2.2-3.6-3.5
	c0,0,0,0-0.1-0.1c-2.9,3.9-4.7,8.4-6.1,13c-1.2,4.2-1.7,8.6-2.2,12.9c-0.3,2.5-0.6,5.1-0.6,7.6c-0.1,2.9,0.2,5.9,1.2,8.6
	c0.4,1.2,1,2.4,1.8,3.5c0.5,0.6,0.9,1.2,1.5,1.7c0.6,0.6,1.3,1,2,1.6c2.5,1.9,5.6,3.1,8.5,4.1c5.7,2,12,2.9,18,3.4
	c2.9,0.2,5.9,0.2,8.8-0.1c3.6-0.4,7.1-1.1,10.5-2.2c3.1-1.1,6.2-2.6,8.8-4.7c1.1-0.9,2-2,2.8-3.2c0.9-1.3,1.4-3.1,1.8-4.7
	c0.3-1.4,0.5-2.9,0.7-4.4c0.3-2,0.5-4,0.7-6c0.4-3.4,0.6-6.8,0.7-10.3c0.1-1.5,0.1-3,0-4.5c0-1.6-0.3-3.2-0.5-4.8
	c-0.4-2.6-1.5-5.1-2.9-7.4c-2.1-3.4-5.1-6-8.5-8.1C49.8,1672.9,48,1675,46,1677L46,1677z M28.8,1700.3c1.2-1.1,2.4-2.2,3.6-3.3
	c1.7-1.5,3.3-3.1,5-4.6c1-0.9,2.3-1.4,3.6-1.4c1.3,0,2.5,0.5,3.5,1.4c1.9,1.9,2,5.2,0,7.1c-1.9,1.8-3.8,3.5-5.7,5.3
	c-1.1,1-2.2,1.9-3.2,3c-2.2,2.2-4.4,4.3-6.9,6.1c-0.6,0.4-1.1,0.8-1.8,1.1c-0.8,0.4-1.6,0.8-2.4,1c-0.8,0.2-1.6,0.3-2.4,0.3
	c-0.9-0.1-2.1-0.3-2.9-0.8c-1-0.7-1.8-1.3-2.5-2.4c-0.3-0.4-0.5-0.9-0.7-1.4c-0.5-1.2-0.9-2.4-1.3-3.6c-0.6-1.2-0.8-2.4-0.5-3.8
	c0.3-1.2,1.2-2.3,2.3-3c1.2-0.7,2.6-0.9,3.9-0.5c1.2,0.3,2.4,1.2,3,2.3c0.3,0.6,0.5,1.1,0.7,1.7
	C25.7,1703.3,27.3,1701.8,28.8,1700.3L28.8,1700.3z M52.4,1707.8c-0.1,0.8-0.2,1.6-0.3,2.4c0,0,0-0.1,0-0.1c0,0,0,0.1,0,0.1l0,0
	c0,0,0,0,0,0l0,0.1C52.1,1709.5,52.3,1708.6,52.4,1707.8L52.4,1707.8z M25.2,1720.8C25.2,1720.8,25.2,1720.8,25.2,1720.8
	C25.2,1720.8,25.2,1720.8,25.2,1720.8C25.2,1720.8,25.2,1720.8,25.2,1720.8L25.2,1720.8z"/>
<polygon class="st0" points="52,1710.2 52,1710.2 52,1710.2 "/>
<path class="st0" d="M-697.5,1615.2c-3.6,0.3-6.9,1.3-10.2,2.7c-2.6,1.1-5,2.6-7.2,4.4c-1.2,1-2.1,2.2-3,3.4c-1.1,1.4-1.8,3-2.4,4.6
	c-0.3,0.8-0.6,1.6-0.8,2.4c-1-0.2-2-0.3-3-0.4c-0.2,0-0.4,0-0.6,0c-1,0-1.9,0.1-2.9,0.3c-0.9,0.1-1.7,0.3-2.5,0.6
	c-1.6,0.5-3.3,1.4-4.4,2.7c-0.7,0.9-1.3,1.7-1.6,2.8c-0.3,0.9-0.4,1.9-0.4,2.9c-0.1,1.7,0.1,3.4,0.1,5.2c0,2.6,0.2,5.2,0.3,7.7
	c0.4,5.5,1,11,1.5,16.5c0.3,2.6,0.5,5.2,0.8,7.8c0.2,2.3,0.4,4.6,0.5,6.9c0,2.1,0.2,4.3,1.2,6.2c0.4,0.8,1,1.6,1.7,2.1
	c0.4,0.4,0.8,0.7,1.3,1c0.6,0.4,1.2,0.6,1.9,0.8c0.5,0.2,1.1,0.3,1.7,0.4c1,0.1,1.9,0.3,2.9,0.3c1.7,0.1,3.5-0.1,5.2-0.2
	c0.4,0,0.7-0.1,1.1-0.1c7.7,0.8,15.4,0.7,23.1,0.6c2.4,0,4.7-0.1,7.1-0.1c1.6,0,3.1,0.1,4.7,0.3c3.3,0.2,6.8,0.3,9.9-0.7
	c1.7-0.6,3.2-1.5,4.5-2.8c1.5-1.6,2.3-3.6,2.6-5.7c0.8-5.3,0.6-10.7,0.5-16.1c0-5.4,0.4-10.8,0.9-16.1c0.5-5.8,1.2-11.5,1.5-17.3
	c0.1-1.7-0.9-3.2-2.3-4.1c-0.9-1.4-2.5-2.4-4.3-2.4c-3,0-6,0-9.1,0c-0.3-1-0.6-2-0.9-2.9c-1.9-5.1-5.4-10.1-10.6-12.3
	c-0.8-0.3-1.5-0.6-2.4-0.9c-0.8-0.2-1.7-0.3-2.6-0.4c-0.7-0.1-1.4-0.1-2.1-0.1C-696.2,1615.1-696.9,1615.2-697.5,1615.2
	L-697.5,1615.2z M-704.5,1650.2c-0.9-0.2-1.7-0.4-2.5-0.7c-0.4-0.2-0.7-0.4-1-0.6c-0.3-0.3-0.6-0.5-0.8-0.8c-0.4-0.6-0.7-1.2-1-1.8
	c-0.5-1.4-0.9-2.8-1.1-4.3c-0.2-1.8-0.3-3.7-0.2-5.5c0-0.4-0.1-0.9-0.2-1.3c0.1-0.5,0.3-1,0.5-1.5c0.5-1,1-1.9,1.6-2.7
	c0.5-0.6,1-1.1,1.6-1.6c1.4-1,2.9-1.8,4.4-2.5c1.9-0.7,3.8-1.3,5.9-1.6c1.1-0.1,2.1-0.1,3.2,0c0.5,0.1,0.9,0.2,1.4,0.4
	c0.5,0.3,1,0.6,1.5,0.9c0.6,0.5,1.2,1.1,1.7,1.7c0.8,1.1,1.4,2.2,2,3.4c0.6,1.6,1,3.2,1.3,4.8c0.1,1.5,0.2,2.9,0,4.3
	c-0.2,0.9-0.4,1.7-0.7,2.6c-0.2,0.4-0.4,0.8-0.7,1.2c-0.5,0.6-1,1.1-1.6,1.6c-1.2,0.9-2.5,1.6-3.9,2.2c-2.1,0.8-4.2,1.4-6.4,1.7
	c-0.9,0.1-1.9,0.1-2.8,0.1C-703.1,1650.2-703.8,1650.2-704.5,1650.2L-704.5,1650.2z M-727.2,1642.9
	C-727.2,1642.9-727.2,1642.9-727.2,1642.9c0,0.1-0.1,0.1-0.1,0.2C-727.3,1643-727.3,1642.9-727.2,1642.9L-727.2,1642.9z
	 M-715.3,1686.2c-0.1,0-0.3,0-0.4,0.1C-715.6,1686.2-715.5,1686.2-715.3,1686.2L-715.3,1686.2z"/>
<path class="st0" d="M-697.2,1628.6c-1.5,1.4-2.9,2.8-4.4,4.1c-1.1,0.8-1.9,1.6-2.3,3c-0.4,1.3-0.2,2.7,0.5,3.9c0.7,1.1,1.7,2,3,2.3
	c1.2,0.3,2.8,0.2,3.9-0.5c2.3-1.7,4.3-3.7,6.4-5.6c2-1.9,1.9-5.2,0-7.1c-1-1-2.2-1.4-3.5-1.4
	C-694.9,1627.1-696.2,1627.6-697.2,1628.6L-697.2,1628.6z M-701,1632.2c-0.1,0-0.1,0.1-0.2,0.1
	C-701.2,1632.3-701.1,1632.2-701,1632.2L-701,1632.2z"/>
<g>
	<path class="st0" d="M174.5,22.6c-0.5,0.1-0.9,0.3-1.3,0.5c-0.4,0.2-0.8,0.6-1.1,0.9c-0.1,0.1-0.2,0.3-0.3,0.4
		c-0.2-0.1-0.3-0.2-0.5-0.4c-0.4-0.3-1-0.5-1.5-0.7c-0.2-0.1-0.4-0.1-0.6-0.1c-0.5-0.1-0.9-0.1-1.4,0c-1.2,0.2-2.1,1.1-2.5,2.2
		c-0.4,1.1-0.2,2.3,0,3.3c0.2,0.9,0.6,1.7,1.1,2.5c0.6,1.1,1.4,2.1,2.2,3c0.8,0.8,1.8,1.6,2.9,1.9c0.3,0.1,0.6,0.1,0.9,0.1
		c0.3,0,0.6-0.1,0.9-0.2c0.6-0.2,1.2-0.6,1.7-1.1c0.7-0.7,1.1-1.6,1.7-2.3c0.4-0.5,0.8-1.1,1.1-1.7c0.9-1.4,1.6-3,1.7-4.7
		c0.1-0.7-0.2-1.6-0.6-2.2c-0.2-0.2-0.3-0.4-0.5-0.6c-0.2-0.2-0.4-0.3-0.6-0.4c-0.5-0.3-1.1-0.4-1.7-0.5c-0.2,0-0.4,0-0.6,0
		C175.1,22.5,174.8,22.5,174.5,22.6L174.5,22.6z M175.6,26.3C175.6,26.3,175.6,26.3,175.6,26.3c-0.1,0.4-0.2,0.8-0.4,1.2
		c-0.4,0.9-0.9,1.7-1.4,2.4c-0.1,0.2-0.3,0.4-0.4,0.6c0.2-1,0.4-2,0.8-3c0.1-0.3,0.3-0.6,0.5-0.9c0.1-0.1,0.2-0.2,0.3-0.3
		c0,0,0.1,0,0.1-0.1c0,0,0,0,0.1,0C175.4,26.3,175.5,26.3,175.6,26.3L175.6,26.3z M168.8,26.7C168.8,26.7,168.8,26.7,168.8,26.7
		L168.8,26.7C168.8,26.7,168.8,26.7,168.8,26.7L168.8,26.7z M168.6,26.9C168.6,26.9,168.6,26.9,168.6,26.9L168.6,26.9L168.6,26.9
		C168.6,26.9,168.6,26.9,168.6,26.9L168.6,26.9z M168.8,27C168.8,27,168.8,27,168.8,27c0.2,0.1,0.4,0.2,0.6,0.4
		c0.1,0.1,0.2,0.2,0.3,0.3c0,0,0,0,0,0.1c0.1,0.2,0.2,0.4,0.4,0.6c-0.1,0.5-0.2,0.9-0.3,1.4c-0.2-0.4-0.5-0.8-0.7-1.2
		c-0.1-0.4-0.3-0.8-0.3-1.2C168.8,27.2,168.8,27.1,168.8,27L168.8,27z M172.5,31.9c-0.1,0.1-0.2,0.2-0.2,0.3c0,0.1-0.1,0.1-0.1,0.2
		c-0.1-0.1-0.2-0.1-0.2-0.2c0,0-0.1-0.1-0.1-0.1C172.1,32.1,172.3,32,172.5,31.9L172.5,31.9z M172,32.5C172,32.5,172,32.5,172,32.5
		C172.1,32.5,172.1,32.5,172,32.5C172,32.5,172,32.5,172,32.5L172,32.5z M172,32.6C171.9,32.6,171.9,32.6,172,32.6
		C171.9,32.6,171.9,32.6,172,32.6L172,32.6z"/>
	<path class="st0" d="M175.4,24.3c-0.4,0.1-0.9,0.4-1.1,0.9c-0.5,1-1,2-1.6,3c-0.2,0.3-0.4,0.7-0.5,1c-0.3-0.6-0.6-1.2-0.9-1.8
		c-0.1-0.2-0.2-0.4-0.2-0.6c-0.2-0.5-0.4-0.9-0.9-1.1c-0.4-0.3-1-0.3-1.5-0.2c-0.5,0.1-0.9,0.4-1.1,0.9c-0.2,0.4-0.4,1-0.2,1.5
		c0.6,1.8,1.4,3.6,2.8,4.9c0.4,0.4,0.9,0.7,1.5,0.9c0.6,0.2,1.1,0.2,1.7,0.1c0.7-0.1,1.2-0.7,1.6-1.3c0.3-0.4,0.4-0.9,0.5-1.3
		c0.7-1.3,1.5-2.6,2.1-4c0.1-0.2,0.1-0.3,0.2-0.5c0.1-0.3,0.1-0.7,0-1c-0.1-0.5-0.4-0.9-0.9-1.1c-0.3-0.2-0.6-0.3-1-0.3
		C175.8,24.2,175.6,24.3,175.4,24.3L175.4,24.3z"/>
	<g>
		<g>
			<path class="st1" d="M184.4,20.9c1.3,2.2,2.1,4.7,2.1,7.5c0,7.8-6.4,14.2-14.2,14.2c-7.8,0-14.2-6.4-14.2-14.2
				s6.4-14.2,14.2-14.2c0,0,0.1,0,0.1,0"/>
			<g>
				<polygon class="st2" points="166.7,18.1 171.7,14.1 167.7,9.1 171.5,9.6 175.5,14.5 170.5,18.5 				"/>
			</g>
		</g>
	</g>
	<circle class="st1" cx="171.9" cy="28.3" r="26.3"/>
</g>
<g>
	<path class="st0" d="M96.3,3.6c-0.8,0.3-1.6,0.7-2.4,1.2c-0.9,0.5-1.7,1.2-2.4,1.9c-0.7,0.7-1.3,1.5-1.9,2.3
		c-0.7,1-1.2,2.3-1.6,3.4c-0.4,1.1-0.5,2.2-0.6,3.4c-0.1,1.1,0,2.2,0.2,3.3c0.3,2.1,1.2,4.2,2.4,5.9c1.4,1.9,3.1,3.4,5.2,4.5
		c2.1,1.1,4.5,1.6,6.9,1.5c1.3,0,2.6-0.3,3.9-0.7c1-0.3,1.9-0.8,2.8-1.3c2-1.2,3.6-2.9,4.9-4.8c0.6-0.9,1-2,1.4-3
		c0.4-1,0.5-2.1,0.6-3.2c0.1-0.7,0.1-1.4,0-2.1c-0.1-1.2-0.3-2.4-0.7-3.6c-0.7-2.1-1.9-3.9-3.4-5.5c-0.7-0.8-1.7-1.4-2.6-2
		c-0.8-0.5-1.7-0.9-2.6-1.3c-0.6-0.2-1.3-0.4-1.9-0.5c-1-0.2-1.9-0.3-2.9-0.3C99.6,2.6,97.9,2.9,96.3,3.6L96.3,3.6z M102.3,9.7
		c0.6,0.1,1.1,0.3,1.7,0.5c0.6,0.3,1.2,0.6,1.7,1c0.4,0.4,0.8,0.8,1.2,1.2c0.4,0.5,0.7,1,0.9,1.6c0.2,0.6,0.4,1.2,0.5,1.8
		c0,0.6,0,1.3,0,1.9c-0.1,0.6-0.3,1.2-0.5,1.8c-0.3,0.6-0.6,1.1-0.9,1.6c-0.4,0.5-0.8,0.9-1.3,1.3c-0.5,0.3-1,0.6-1.5,0.9
		c-0.6,0.2-1.2,0.4-1.8,0.5c-0.7,0.1-1.3,0.1-2,0c-0.6-0.1-1.2-0.3-1.8-0.5c-0.6-0.3-1.1-0.6-1.6-0.9c-0.5-0.4-0.9-0.8-1.3-1.3
		c-0.3-0.5-0.6-1-0.9-1.6c-0.2-0.6-0.4-1.2-0.5-1.8c0-0.6,0-1.3,0-1.9c0.1-0.6,0.3-1.2,0.5-1.8c0.3-0.6,0.6-1.1,1-1.7
		c0.4-0.4,0.8-0.8,1.2-1.2c0.5-0.3,1-0.6,1.5-0.9c0.6-0.2,1.2-0.4,1.8-0.5C101.1,9.7,101.7,9.7,102.3,9.7L102.3,9.7z"/>
	<path class="st0" d="M121.3,28.3c-0.1,0-0.1,0-0.2,0c-0.1,0-0.3,0.1-0.4,0.1c-1.4,0.4-2.8,1.1-3.9,2.1c-1.1,0.9-2,2-2.7,3.3
		c-0.7,1.4-1,2.8-1.1,4.3c-0.1,0.8,0,1.8,0.2,2.6c0.2,0.8,0.5,1.6,0.8,2.4c0.5,1.1,1.3,2.1,2.1,3c0.5,0.6,1.2,1,1.9,1.5
		c0.6,0.4,1.4,0.7,2.1,1c0.8,0.3,1.7,0.4,2.5,0.5c0.9,0.1,1.8,0,2.7-0.1c1.3-0.2,2.6-0.7,3.7-1.4c1.4-0.8,2.4-2,3.3-3.3
		c0.5-0.7,0.8-1.5,1.1-2.3c0.3-0.9,0.5-1.7,0.5-2.6c0.1-1.5-0.1-3-0.6-4.4c-0.6-1.6-1.5-2.9-2.7-4.1c-1.1-1.1-2.5-1.8-3.9-2.3
		c-0.6-0.2-1.3-0.3-1.9-0.4c-0.2,0-0.4-0.1-0.6-0.1c-0.3,0-0.6,0-0.9,0C122.7,28.1,122,28.2,121.3,28.3L121.3,28.3z M123.9,35.2
		c0.3,0.1,0.6,0.1,0.8,0.2c0.3,0.1,0.5,0.3,0.8,0.4c0.2,0.2,0.4,0.4,0.6,0.6c0.2,0.3,0.3,0.5,0.4,0.8c0.1,0.3,0.2,0.6,0.2,0.9
		c0,0.3,0,0.6,0,0.8c-0.1,0.3-0.1,0.6-0.2,0.9c-0.1,0.3-0.3,0.5-0.4,0.8c-0.2,0.2-0.5,0.5-0.7,0.7c-0.2,0.1-0.5,0.3-0.7,0.4
		c-0.3,0.1-0.6,0.2-0.9,0.2c-0.3,0-0.6,0-0.9,0c-0.3-0.1-0.6-0.2-0.9-0.3c-0.2-0.1-0.4-0.2-0.6-0.4c-0.2-0.2-0.5-0.4-0.7-0.7
		c-0.2-0.3-0.3-0.5-0.5-0.8c-0.1-0.3-0.2-0.6-0.2-0.8c0-0.3,0-0.6,0-0.9c0.1-0.3,0.1-0.6,0.2-0.9c0.1-0.3,0.3-0.5,0.4-0.8
		c0.2-0.2,0.4-0.5,0.7-0.7c0.3-0.2,0.5-0.3,0.8-0.5c0.3-0.1,0.5-0.2,0.8-0.2C123.3,35.2,123.6,35.2,123.9,35.2L123.9,35.2z"/>
	<path class="st0" d="M119.3,29C119.3,29,119.3,29,119.3,29c-0.2,0.1-0.3,0.2-0.5,0.2c0,0,0,0-0.1,0c0,0,0,0,0,0c0,0,0,0-0.1,0
		c-0.1,0.1-0.2,0.1-0.3,0.2c-1.7,0.9-2.2,3.3-1.3,4.9c1,1.7,3.1,2.2,4.8,1.3c0,0,0.1,0,0.1,0c0.1-0.1,0.3-0.1,0.4-0.2c0,0,0,0,0,0
		c0,0,0,0,0,0c0,0,0.1,0,0.1,0c0.8-0.3,1.4-1.3,1.6-2.1c0.3-0.9,0.1-1.9-0.4-2.7c-0.5-0.8-1.2-1.4-2.1-1.6c-0.3,0-0.6-0.1-0.9-0.1
		C120.2,28.6,119.7,28.8,119.3,29L119.3,29z"/>
	<path class="st0" d="M104.3-0.7c-1.1,1.9-2.3,3.8-2.7,5.9c-0.2,1-0.2,1.9,0.4,2.7c0.5,0.8,1.2,1.4,2.1,1.6c0.9,0.3,1.9,0.1,2.7-0.4
		c0.7-0.4,1.5-1.3,1.6-2.1c0.1-0.5,0.2-1,0.4-1.5c0.4-0.9,1-1.8,1.5-2.7c1-1.7,0.4-3.9-1.3-4.9c-0.6-0.3-1.2-0.5-1.8-0.5
		C106.2-2.4,104.9-1.8,104.3-0.7L104.3-0.7z"/>
	<path class="st0" d="M92.6-1.7c-0.8,0.5-1.4,1.2-1.6,2.1c-0.3,1-0.1,1.9,0.4,2.7c0.5,1,1.1,1.9,1.6,2.9c0.1,0.3,0.2,0.7,0.3,1
		c0.2,0.9,0.9,1.7,1.6,2.1c0.8,0.5,1.8,0.6,2.7,0.4c0.9-0.2,1.7-0.8,2.1-1.6c0.5-0.9,0.5-1.8,0.4-2.7c-0.4-2.1-1.6-3.8-2.6-5.6
		c-0.4-0.8-1.3-1.4-2.1-1.6c-0.3-0.1-0.6-0.1-0.9-0.1C93.8-2.1,93.2-2,92.6-1.7L92.6-1.7z"/>
	<path class="st0" d="M85.3,7c-0.9,0.2-1.7,0.8-2.1,1.6c-0.5,0.8-0.6,1.8-0.4,2.7c0.2,0.8,0.8,1.8,1.6,2.1c1.1,0.5,2.2,0.9,3.4,1.3
		c1.3,0.4,2.6,0.5,4,0.7c0.9,0.1,1.9-0.4,2.5-1c0.7-0.7,1-1.6,1-2.5c0-0.9-0.4-1.9-1-2.5c-0.7-0.7-1.5-1-2.5-1c-0.1,0-0.2,0-0.3,0
		c-1.1-0.2-2.3-0.5-3.3-0.9c0,0-0.1,0-0.1,0c-0.3-0.1-0.6-0.2-0.9-0.4c-0.3-0.1-0.6-0.1-0.9-0.1S85.6,6.9,85.3,7L85.3,7z M88.5,7.6
		c0.1,0,0.2,0.1,0.2,0.1C88.7,7.7,88.6,7.6,88.5,7.6L88.5,7.6z"/>
	<path class="st0" d="M90.1,16.4c-0.9,0.3-1.7,0.7-2.5,1.2c-0.8,0.5-1.5,1.1-2.2,1.6c-0.4,0.3-0.8,0.6-1.2,0.9
		c-1.6,1-2.3,3.2-1.3,4.9c1,1.6,3.2,2.3,4.9,1.3c0.8-0.5,1.6-1.1,2.4-1.8c0.6-0.5,1.3-0.9,2-1.3c0.8-0.3,1.5-0.8,1.9-1.6
		c0.5-0.8,0.6-1.8,0.4-2.7c-0.2-0.9-0.8-1.7-1.6-2.1c-0.5-0.3-1.2-0.5-1.9-0.5C90.7,16.2,90.4,16.3,90.1,16.4L90.1,16.4z M90,24.5
		c-0.1,0.1-0.1,0.1-0.2,0.2C89.9,24.6,90,24.6,90,24.5L90,24.5z"/>
	<path class="st0" d="M92.9,25.1c-0.5,2-0.7,4.1-1.1,6.1c-0.2,1-0.2,1.9,0.4,2.7c0.5,0.8,1.2,1.4,2.1,1.6c1.8,0.5,4-0.6,4.4-2.5
		c0.4-2,0.6-4.1,1.1-6.1c0.4-1.9-0.6-3.8-2.5-4.4c-0.3-0.1-0.6-0.1-0.9-0.1C94.8,22.5,93.2,23.5,92.9,25.1L92.9,25.1z"/>
	<path class="st0" d="M104.4,23.3c-1.9,0.5-3,2.5-2.5,4.4c0.3,1,0.7,2,1.4,2.9c0.5,0.8,1.1,1.5,1.5,2.4c0.4,0.8,1.3,1.4,2.1,1.6
		c0.9,0.3,1.9,0.1,2.7-0.4c0.8-0.5,1.4-1.2,1.6-2.1c0.3-1,0.1-1.8-0.4-2.7c-0.5-1.2-1.4-2.1-2.1-3.3c0-0.1-0.1-0.2-0.1-0.4
		c-0.4-1.6-1.9-2.6-3.5-2.6C105,23.2,104.7,23.2,104.4,23.3L104.4,23.3z"/>
	<path class="st0" d="M108.9,20.8c0,2,1.6,3.5,3.6,3.6c0.3,0,0.5,0,0.8,0c0.8,0.1,1.5,0.3,2.3,0.6c1.9,0.6,3.9-0.7,4.4-2.5
		c0.5-1.9-0.6-3.8-2.5-4.4c-1.6-0.5-3.3-0.8-5-0.9c0,0,0,0,0,0C110.5,17.3,108.9,18.9,108.9,20.8L108.9,20.8z"/>
	<path class="st0" d="M114.6,6.2c-0.7,0.3-1.3,0.5-1.9,0.8c-0.6,0.2-1.2,0.4-1.8,0.6c-0.9,0.1-1.6,0.4-2.3,1c-0.7,0.7-1,1.6-1,2.5
		s0.4,1.9,1,2.5c0.6,0.6,1.6,1.1,2.5,1c1-0.1,2-0.3,3-0.6c0.8-0.3,1.5-0.6,2.3-1c0.1,0,0.1,0,0.2-0.1c0.9-0.4,1.6-0.8,2.1-1.6
		c0.5-0.8,0.6-1.8,0.4-2.7c-0.2-0.9-0.8-1.7-1.6-2.1c-0.5-0.3-1.2-0.5-1.9-0.5C115.2,6.1,114.9,6.1,114.6,6.2L114.6,6.2z
		 M116.1,13.3c0,0-0.1,0-0.1,0.1C116,13.3,116,13.3,116.1,13.3L116.1,13.3z"/>
	<path class="st0" d="M114.5,27.1c-0.8,0.5-1.4,1.2-1.6,2.1c-0.2,0.8-0.2,2,0.4,2.7c0.5,0.6,0.9,1.1,1.4,1.6c0.4,0.3,0.8,0.6,1.1,1
		c0.5,0.7,1.7,1,2.5,1c0.9,0,1.9-0.4,2.5-1c0.7-0.7,1-1.6,1-2.5c0-0.3-0.1-0.6-0.1-0.9c-0.2-0.6-0.5-1.1-0.9-1.6
		c-0.5-0.7-1.3-1.1-1.9-1.8c0,0-0.1-0.1-0.1-0.1c-0.4-0.4-1-0.7-1.6-0.9c-0.3-0.1-0.6-0.1-0.9-0.1C115.7,26.6,115,26.8,114.5,27.1
		L114.5,27.1z M119.4,28.4c0-0.1-0.1-0.1-0.1-0.2C119.3,28.3,119.3,28.3,119.4,28.4C119.4,28.4,119.4,28.4,119.4,28.4L119.4,28.4z"
		/>
	<path class="st0" d="M125.4,43.7c-0.7,0.7-1,1.6-1,2.5c0,1,0.4,1.8,1,2.5c0.5,0.6,1,1.2,1.7,1.7c0.2,0.2,0.5,0.4,0.7,0.6
		c0.6,0.3,1.2,0.5,1.8,0.5c0.9,0,1.9-0.4,2.5-1s1-1.6,1-2.5c0-0.8-0.3-2-1-2.5c-0.6-0.5-1.1-1.1-1.7-1.7c-0.6-0.7-1.6-1-2.5-1
		C126.9,42.6,126,43,125.4,43.7L125.4,43.7z"/>
	<path class="st0" d="M124.2,25.1c-0.8,0.5-1.3,1.2-1.6,2.1c-0.3,0.9-0.6,1.7-0.7,2.6c0,0.3-0.1,0.6-0.1,0.9c0,0.6,0.2,1.2,0.5,1.8
		c0.5,0.8,1.2,1.4,2.1,1.6c0.9,0.3,1.9,0.1,2.7-0.4c0.7-0.4,1.5-1.3,1.6-2.1c0.1-0.9,0.4-1.7,0.7-2.6c0.3-0.9,0.1-2-0.4-2.7
		c-0.5-0.8-1.2-1.4-2.1-1.6c-0.3-0.1-0.6-0.1-0.9-0.1C125.4,24.6,124.8,24.8,124.2,25.1L124.2,25.1z"/>
	<path class="st0" d="M117.5,45.7c-0.2,1-0.4,2.1-0.7,3.1c-0.5,1.9,0.6,3.9,2.5,4.4c1.9,0.5,3.9-0.6,4.4-2.5c0.3-1,0.5-2.1,0.7-3.1
		c0.2-1,0.1-1.9-0.4-2.7c-0.5-0.8-1.2-1.4-2.1-1.6c-0.3-0.1-0.6-0.1-0.9-0.1C119.4,43.1,117.8,44.1,117.5,45.7L117.5,45.7z"/>
	<path class="st0" d="M132.7,32.5c-0.2,0.1-0.4,0.1-0.6,0.2c-0.4,0-0.9,0.1-1.3,0.1c-1,0.1-1.8,0.3-2.5,1c-0.7,0.7-1,1.6-1,2.5
		s0.4,1.9,1,2.5c0.6,0.6,1.6,1.1,2.5,1c1.3-0.1,2.6-0.1,3.8-0.5c1.8-0.6,3-2.5,2.5-4.4c-0.4-1.5-1.9-2.6-3.4-2.6
		C133.3,32.4,133,32.4,132.7,32.5L132.7,32.5z"/>
	<path class="st0" d="M113.8,36.3c-0.4,0.2-0.9,0.5-1.3,0.7c-0.1,0-0.1,0-0.2,0.1c-0.9,0.3-1.6,0.8-2.1,1.6
		c-0.5,0.8-0.6,1.8-0.4,2.7c0.5,1.8,2.5,3.1,4.4,2.5c1.1-0.4,2.2-0.9,3.2-1.5c1.7-1,2.2-3.2,1.3-4.9c-0.7-1.1-1.9-1.7-3.1-1.7
		C115,35.8,114.4,36,113.8,36.3L113.8,36.3z"/>
</g>
<circle class="st3" cx="-699.3" cy="940.9" r="69.7"/>
<circle class="st3" cx="28.5" cy="1153.8" r="69.7"/>
<circle class="st3" cx="-696.4" cy="1657" r="69.7"/>
<circle class="st3" cx="29" cy="1686.3" r="69.7"/>
</svg>
